<?xml version="1.0"?>
<svg width="1200" height="675" xmlns="http://www.w3.org/2000/svg" xmlns:svg="http://www.w3.org/2000/svg">
 <defs>
  <style>.cls-1{fill:#fcfcfc;}.cls-2{fill:#40dcff;}.cls-3{fill:#fff;}.cls-4{fill:#009fff;}.cls-5{fill:none;stroke:#262626;stroke-linecap:round;stroke-linejoin:round;stroke-width:4px;}.cls-6{fill:#262626;}.cls-7{fill:#fced19;}.cls-8{fill:#ff9d00;}.cls-9{fill:#ff85ff;}.cls-10{fill:#ff0bff;}</style>
 </defs>
 <title>rock-paper-scissors-vector-line-icons</title>
 <g class="layer">
  <title>Layer 1</title>
  <rect class="cls-9" height="300" id="svg_408" rx="150" width="299.71" x="82" y="147.25"/>
  <rect class="cls-2" height="300" id="svg_2" rx="150" transform="matrix(-0.999035 0 0 -1 1934.21 594.5)" width="300" x="818" y="147.25"/>
  <path class="cls-2" d="m1003.43,329.53a27.8,27.83 0 0 1 6.87,-0.86a27.38,27.41 0 1 1 -6.87,0.86zm6.87,38.41a11.78,11.79 0 1 0 -11.77,-11.78a11.78,11.79 0 0 0 11.77,11.78z" id="svg_3"/>
  <path class="cls-3" d="m931.54,329.72a27.49,27.52 0 1 1 -7.55,-1.05a27.55,27.58 0 0 1 7.55,1.05zm-7.55,38.22a11.78,11.79 0 1 0 -11.79,-11.78a11.78,11.79 0 0 0 11.79,11.78z" id="svg_4"/>
  <path class="cls-4" d="m986.55,369.63a0.76,0.76 0 0 0 -0.16,0c0.35,0.63 0.73,1.25 1.13,1.84a1.17,1.17 0 0 0 -1,-1.87l0.03,0.03z" id="svg_5"/>
  <path class="cls-4" d="m989.54,366.63a1.2,1.2 0 1 0 1.2,1.2a1.2,1.2 0 0 0 -1.2,-1.2z" id="svg_6"/>
  <path class="cls-4" d="m990.74,373.83a1.19,1.19 0 0 0 -2.1,-0.78c0.48,0.62 1,1.21 1.52,1.79a1.21,1.21 0 0 0 0.58,-1.01z" id="svg_7"/>
  <path class="cls-4" d="m986.55,357.63a1.2,1.2 0 1 0 1.2,1.2a1.2,1.2 0 0 0 -1.2,-1.2z" id="svg_8"/>
  <path class="cls-4" d="m984.75,355.83a1.2,1.2 0 0 0 -1.2,-1.2a1.17,1.17 0 0 0 -0.68,0.24c0,0.43 0,0.85 0,1.29c0,0.21 0,0.41 0,0.62a1.17,1.17 0 0 0 0.7,0.25a1.2,1.2 0 0 0 1.18,-1.2z" id="svg_9"/>
  <path class="cls-4" d="m989.54,354.63a1.2,1.2 0 1 0 1.2,1.2a1.2,1.2 0 0 0 -1.2,-1.2z" id="svg_10"/>
  <path class="cls-4" d="m984.75,361.83a1.2,1.2 0 0 0 -1.2,-1.2a0.93,0.93 0 0 0 -0.33,0.07c0.13,0.77 0.28,1.54 0.48,2.3a1.19,1.19 0 0 0 1.05,-1.17z" id="svg_11"/>
  <path class="cls-4" d="m989.54,360.63a1.2,1.2 0 1 0 1.2,1.2a1.2,1.2 0 0 0 -1.2,-1.2z" id="svg_12"/>
  <path class="cls-4" d="m986.55,363.63a1.2,1.2 0 1 0 1.2,1.2a1.2,1.2 0 0 0 -1.2,-1.2z" id="svg_13"/>
  <path class="cls-4" d="m986.55,345.63a1.2,1.2 0 1 0 1.2,1.2a1.2,1.2 0 0 0 -1.2,-1.2z" id="svg_14"/>
  <path class="cls-4" d="m989.54,342.63a1.2,1.2 0 1 0 1.2,1.2a1.2,1.2 0 0 0 -1.2,-1.2z" id="svg_15"/>
  <path class="cls-4" d="m984.75,349.83a1.19,1.19 0 0 0 -0.88,-1.14c-0.21,0.75 -0.39,1.52 -0.54,2.29a0.87,0.87 0 0 0 0.22,0a1.2,1.2 0 0 0 1.2,-1.15z" id="svg_16"/>
  <path class="cls-4" d="m989.54,348.63a1.2,1.2 0 1 0 1.2,1.2a1.2,1.2 0 0 0 -1.2,-1.2z" id="svg_17"/>
  <path class="cls-4" d="m986.55,351.63a1.2,1.2 0 1 0 1.2,1.2a1.2,1.2 0 0 0 -1.2,-1.2z" id="svg_18"/>
  <path class="cls-4" d="m990.74,337.83a1.15,1.15 0 0 0 -0.25,-0.7c-0.53,0.55 -1,1.13 -1.53,1.73a1.19,1.19 0 0 0 0.58,0.17a1.2,1.2 0 0 0 1.2,-1.2z" id="svg_19"/>
  <path class="cls-4" d="m987.74,340.83a1.17,1.17 0 0 0 0,-0.27c-0.32,0.46 -0.63,0.94 -0.93,1.42a1.17,1.17 0 0 0 0.93,-1.15z" id="svg_20"/>
  <path class="cls-4" d="m995.54,378.63a1.17,1.17 0 0 0 -0.7,0.25c0.61,0.41 1.23,0.79 1.86,1.15a1.42,1.42 0 0 0 0,-0.2a1.2,1.2 0 0 0 -1.16,-1.2z" id="svg_21"/>
  <path class="cls-4" d="m1001.53,378.63a1.2,1.2 0 1 0 1.2,1.2a1.2,1.2 0 0 0 -1.2,-1.2z" id="svg_22"/>
  <path class="cls-4" d="m998.53,336a1.2,1.2 0 1 0 -1.2,-1.2a1.2,1.2 0 0 0 1.2,1.2z" id="svg_23"/>
  <path class="cls-4" d="m993.74,334.83a1.13,1.13 0 0 0 -0.12,-0.51c-0.6,0.47 -1.2,1 -1.76,1.47a1.17,1.17 0 0 0 0.68,0.24a1.2,1.2 0 0 0 1.2,-1.2z" id="svg_24"/>
  <path class="cls-4" d="m996.63,332.32c-0.39,0.22 -0.77,0.46 -1.14,0.7l0,0a1.19,1.19 0 0 0 1.14,-0.7z" id="svg_25"/>
  <path class="cls-4" d="m1001.53,333a1.2,1.2 0 1 0 -1.2,-1.2a1.2,1.2 0 0 0 1.2,1.2z" id="svg_26"/>
  <path class="cls-4" d="m995.54,336.63a1.2,1.2 0 1 0 1.2,1.2a1.2,1.2 0 0 0 -1.2,-1.2z" id="svg_27"/>
  <path class="cls-4" d="m1001.53,339a1.2,1.2 0 1 0 -1.2,-1.2a1.2,1.2 0 0 0 1.2,1.2z" id="svg_28"/>
  <path class="cls-4" d="m1010.52,381.63a1.19,1.19 0 0 0 -0.88,2l0.66,0l1.11,0a1.16,1.16 0 0 0 0.31,-0.79a1.2,1.2 0 0 0 -1.2,-1.21z" id="svg_29"/>
  <path class="cls-4" d="m1004.53,381.63a1.19,1.19 0 0 0 -1.18,1.13c0.75,0.19 1.52,0.35 2.3,0.49a1.16,1.16 0 0 0 0.08,-0.42a1.2,1.2 0 0 0 -1.2,-1.2z" id="svg_30"/>
  <path class="cls-4" d="m1007.53,378.63a1.2,1.2 0 1 0 1.2,1.2a1.2,1.2 0 0 0 -1.2,-1.2z" id="svg_31"/>
  <path class="cls-4" d="m1013.52,378.63a1.2,1.2 0 1 0 1.2,1.2a1.2,1.2 0 0 0 -1.2,-1.2z" id="svg_32"/>
  <path class="cls-4" d="m1010.52,336a1.2,1.2 0 1 0 -1.2,-1.2a1.2,1.2 0 0 0 1.2,1.2z" id="svg_33"/>
  <path class="cls-4" d="m1004.53,336a1.2,1.2 0 1 0 -1.2,-1.2a1.2,1.2 0 0 0 1.2,1.2z" id="svg_34"/>
  <path class="cls-4" d="m1007.53,333a1.2,1.2 0 1 0 -1.2,-1.2a1.2,1.2 0 0 0 1.2,1.2z" id="svg_35"/>
  <path class="cls-4" d="m1013.52,333a1.2,1.2 0 1 0 -1.2,-1.2a1.2,1.2 0 0 0 1.2,1.2z" id="svg_36"/>
  <path class="cls-4" d="m1007.53,339a1.2,1.2 0 1 0 -1.2,-1.2a1.2,1.2 0 0 0 1.2,1.2z" id="svg_37"/>
  <path class="cls-4" d="m1013.52,339a1.2,1.2 0 1 0 -1.2,-1.2a1.2,1.2 0 0 0 1.2,1.2z" id="svg_38"/>
  <path class="cls-4" d="m1010.52,330a1.2,1.2 0 0 0 1.2,-1.2s0,-0.08 0,-0.12c-0.47,0 -0.93,0 -1.4,0l-1,0a0.7,0.7 0 0 0 0,0.14a1.2,1.2 0 0 0 1.2,1.18z" id="svg_39"/>
  <path class="cls-4" d="m1004.53,330a1.2,1.2 0 0 0 1.16,-1c-0.72,0.12 -1.43,0.27 -2.12,0.44a1.16,1.16 0 0 0 0.96,0.56z" id="svg_40"/>
  <path class="cls-4" d="m1016.52,381.63a1.2,1.2 0 0 0 -1.2,1.2a1.28,1.28 0 0 0 0.07,0.34c0.78,-0.14 1.54,-0.32 2.29,-0.53a1.17,1.17 0 0 0 -1.16,-1.01z" id="svg_41"/>
  <path class="cls-4" d="m1019.51,378.63a1.2,1.2 0 1 0 1.2,1.2a1.2,1.2 0 0 0 -1.2,-1.2z" id="svg_42"/>
  <path class="cls-4" d="m1024.32,379.8c0.57,-0.34 1.12,-0.7 1.66,-1.08a1.2,1.2 0 0 0 -1.66,1.08z" id="svg_43"/>
  <path class="cls-4" d="m1022.51,333.63a1.2,1.2 0 1 0 1.2,1.2a1.2,1.2 0 0 0 -1.2,-1.2z" id="svg_44"/>
  <path class="cls-4" d="m1016.52,336a1.2,1.2 0 1 0 -1.2,-1.2a1.2,1.2 0 0 0 1.2,1.2z" id="svg_45"/>
  <path class="cls-4" d="m1019.51,333a1.2,1.2 0 1 0 -1.2,-1.2a1.2,1.2 0 0 0 1.2,1.2z" id="svg_46"/>
  <path class="cls-4" d="m1019.51,339a1.2,1.2 0 1 0 -1.2,-1.2a1.2,1.2 0 0 0 1.2,1.2z" id="svg_47"/>
  <path class="cls-4" d="m1025.51,336.63a1.2,1.2 0 1 0 1.2,1.2a1.2,1.2 0 0 0 -1.2,-1.2z" id="svg_48"/>
  <path class="cls-4" d="m1016.52,330a1.2,1.2 0 0 0 0.9,-0.42c-0.67,-0.18 -1.35,-0.33 -2,-0.46a1.18,1.18 0 0 0 1.1,0.88z" id="svg_49"/>
  <path class="cls-4" d="m1033.3,370.83a0.82,0.82 0 0 0 0.06,0.26c0.29,-0.46 0.58,-0.92 0.85,-1.4a1.18,1.18 0 0 0 -0.91,1.14z" id="svg_50"/>
  <path class="cls-4" d="m1031.5,369a1.2,1.2 0 1 0 -1.2,-1.2a1.2,1.2 0 0 0 1.2,1.2z" id="svg_51"/>
  <path class="cls-4" d="m1030.3,373.83a1.19,1.19 0 0 0 0.33,0.81c0.53,-0.58 1,-1.18 1.5,-1.81a1.12,1.12 0 0 0 -0.63,-0.2a1.2,1.2 0 0 0 -1.2,1.2z" id="svg_52"/>
  <path class="cls-4" d="m1034.5,360a1.2,1.2 0 1 0 -1.2,-1.2a1.2,1.2 0 0 0 1.2,1.2z" id="svg_53"/>
  <path class="cls-4" d="m1031.5,357a1.2,1.2 0 1 0 -1.2,-1.2a1.2,1.2 0 0 0 1.2,1.2z" id="svg_54"/>
  <path class="cls-4" d="m1036.3,355.83a1.2,1.2 0 0 0 1.2,1.2a1,1 0 0 0 0.25,0c0,-0.27 0,-0.55 0,-0.82c0,-0.5 0,-1 0,-1.48a1,1 0 0 0 -0.23,-0.05a1.2,1.2 0 0 0 -1.22,1.15z" id="svg_55"/>
  <path class="cls-4" d="m1031.5,363a1.2,1.2 0 1 0 -1.2,-1.2a1.2,1.2 0 0 0 1.2,1.2z" id="svg_56"/>
  <path class="cls-4" d="m1036.3,361.83a1.19,1.19 0 0 0 0.64,1c0.19,-0.73 0.34,-1.47 0.46,-2.22a1.19,1.19 0 0 0 -1.1,1.22z" id="svg_57"/>
  <path class="cls-4" d="m1034.5,366a1.2,1.2 0 1 0 -1.2,-1.2a1.2,1.2 0 0 0 1.2,1.2z" id="svg_58"/>
  <path class="cls-4" d="m1034.5,348a1.2,1.2 0 1 0 -1.2,-1.2a1.2,1.2 0 0 0 1.2,1.2z" id="svg_59"/>
  <path class="cls-4" d="m1031.5,345a1.2,1.2 0 1 0 -1.2,-1.2a1.2,1.2 0 0 0 1.2,1.2z" id="svg_60"/>
  <path class="cls-4" d="m1031.5,351a1.2,1.2 0 1 0 -1.2,-1.2a1.2,1.2 0 0 0 1.2,1.2z" id="svg_61"/>
  <path class="cls-4" d="m1036.3,349.83a1.18,1.18 0 0 0 1,1.15c-0.14,-0.71 -0.3,-1.41 -0.49,-2.09a1.16,1.16 0 0 0 -0.51,0.94z" id="svg_62"/>
  <path class="cls-4" d="m1034.5,354a1.2,1.2 0 1 0 -1.2,-1.2a1.2,1.2 0 0 0 1.2,1.2z" id="svg_63"/>
  <path class="cls-4" d="m1028.51,336a1.29,1.29 0 0 0 0.4,-0.08c-0.5,-0.47 -1,-0.92 -1.55,-1.35a1,1 0 0 0 0,0.23a1.2,1.2 0 0 0 1.15,1.2z" id="svg_64"/>
  <path class="cls-4" d="m1031.5,339a0.93,0.93 0 0 0 0.24,0c-0.43,-0.54 -0.89,-1.06 -1.36,-1.56a1.36,1.36 0 0 0 -0.08,0.41a1.2,1.2 0 0 0 1.2,1.15z" id="svg_65"/>
  <path class="cls-4" d="m1033.39,341.26a1,1 0 0 0 0.17,0.28l-0.17,-0.28z" id="svg_66"/>
  <path class="cls-4" d="m998.53,369.63a1.2,1.2 0 1 0 1.2,1.2a1.2,1.2 0 0 0 -1.2,-1.2z" id="svg_67"/>
  <path class="cls-4" d="m992.54,369.63a1.2,1.2 0 1 0 1.2,1.2a1.2,1.2 0 0 0 -1.2,-1.2z" id="svg_68"/>
  <path class="cls-4" d="m995.54,366.63a1.2,1.2 0 1 0 1.2,1.2a1.2,1.2 0 0 0 -1.2,-1.2z" id="svg_69"/>
  <path class="cls-4" d="m1001.53,366.63a1.2,1.2 0 1 0 1.2,1.2a1.2,1.2 0 0 0 -1.2,-1.2z" id="svg_70"/>
  <path class="cls-4" d="m995.54,372.63a1.2,1.2 0 1 0 1.2,1.2a1.2,1.2 0 0 0 -1.2,-1.2z" id="svg_71"/>
  <path class="cls-4" d="m1001.53,372.63a1.2,1.2 0 1 0 1.2,1.2a1.2,1.2 0 0 0 -1.2,-1.2z" id="svg_72"/>
  <path class="cls-4" d="m998.53,375.63a1.2,1.2 0 1 0 1.2,1.2a1.2,1.2 0 0 0 -1.2,-1.2z" id="svg_73"/>
  <path class="cls-4" d="m993.74,376.83a1.2,1.2 0 0 0 -1.2,-1.2a1.18,1.18 0 0 0 -1,0.59c0.57,0.53 1.16,1 1.77,1.52a1.19,1.19 0 0 0 0.43,-0.91z" id="svg_74"/>
  <path class="cls-4" d="m998.53,357.63a1.2,1.2 0 1 0 0,2.4a1.24,1.24 0 0 0 0.6,-0.18a11.51,11.52 0 0 1 -0.5,-2.2l-0.1,-0.02z" id="svg_75"/>
  <path class="cls-4" d="m992.54,357.63a1.2,1.2 0 1 0 1.2,1.2a1.2,1.2 0 0 0 -1.2,-1.2z" id="svg_76"/>
  <path class="cls-4" d="m995.54,354.63a1.2,1.2 0 1 0 1.2,1.2a1.2,1.2 0 0 0 -1.2,-1.2z" id="svg_77"/>
  <path class="cls-4" d="m995.54,360.63a1.2,1.2 0 1 0 1.2,1.2a1.2,1.2 0 0 0 -1.2,-1.2z" id="svg_78"/>
  <path class="cls-4" d="m998.53,363.63a1.2,1.2 0 1 0 1.2,1.2a1.2,1.2 0 0 0 -1.2,-1.2z" id="svg_79"/>
  <path class="cls-4" d="m992.54,363.63a1.2,1.2 0 1 0 1.2,1.2a1.2,1.2 0 0 0 -1.2,-1.2z" id="svg_80"/>
  <path class="cls-4" d="m998.53,342a1.2,1.2 0 1 0 -1.2,-1.2a1.2,1.2 0 0 0 1.2,1.2z" id="svg_81"/>
  <path class="cls-4" d="m992.54,339.63a1.2,1.2 0 1 0 1.2,1.2a1.2,1.2 0 0 0 -1.2,-1.2z" id="svg_82"/>
  <path class="cls-4" d="m998.53,348a1.2,1.2 0 1 0 -1.2,-1.2a1.2,1.2 0 0 0 1.2,1.2z" id="svg_83"/>
  <path class="cls-4" d="m992.54,345.63a1.2,1.2 0 1 0 1.2,1.2a1.2,1.2 0 0 0 -1.2,-1.2z" id="svg_84"/>
  <path class="cls-4" d="m995.54,342.63a1.2,1.2 0 1 0 1.2,1.2a1.2,1.2 0 0 0 -1.2,-1.2z" id="svg_85"/>
  <path class="cls-4" d="m1001.53,345a1.2,1.2 0 1 0 -1.2,-1.2a1.2,1.2 0 0 0 1.2,1.2z" id="svg_86"/>
  <path class="cls-4" d="m995.54,348.63a1.2,1.2 0 1 0 1.2,1.2a1.2,1.2 0 0 0 -1.2,-1.2z" id="svg_87"/>
  <path class="cls-4" d="m1000.33,349.83s0,0 0,0.06a12.78,12.79 0 0 1 0.85,-1.19a1.19,1.19 0 0 0 -0.85,1.13z" id="svg_88"/>
  <path class="cls-4" d="m998.53,351.63a1.2,1.2 0 1 0 0,2.4a1.18,1.18 0 0 0 0.2,0a12.7,12.71 0 0 1 0.59,-2.05a1.16,1.16 0 0 0 -0.79,-0.35z" id="svg_89"/>
  <path class="cls-4" d="m992.54,351.63a1.2,1.2 0 1 0 1.2,1.2a1.2,1.2 0 0 0 -1.2,-1.2z" id="svg_90"/>
  <path class="cls-4" d="m1010.52,369.63a1.2,1.2 0 1 0 1.2,1.2a1.2,1.2 0 0 0 -1.2,-1.2z" id="svg_91"/>
  <path class="cls-4" d="m1004.53,369.63a1.2,1.2 0 1 0 1.2,1.2a1.2,1.2 0 0 0 -1.2,-1.2z" id="svg_92"/>
  <path class="cls-4" d="m1006.33,367.83a1.2,1.2 0 0 0 2.4,0l0,0a11.43,11.44 0 0 1 -2.26,-0.53a1.2,1.2 0 0 0 -0.14,0.53z" id="svg_93"/>
  <path class="cls-4" d="m1012.32,367.83a1.2,1.2 0 0 0 2.4,0a1.13,1.13 0 0 0 -0.23,-0.67a11.99,12 0 0 1 -2.15,0.59s-0.02,0.05 -0.02,0.08z" id="svg_94"/>
  <path class="cls-4" d="m1007.53,372.63a1.2,1.2 0 1 0 1.2,1.2a1.2,1.2 0 0 0 -1.2,-1.2z" id="svg_95"/>
  <path class="cls-4" d="m1013.52,372.63a1.2,1.2 0 1 0 1.2,1.2a1.2,1.2 0 0 0 -1.2,-1.2z" id="svg_96"/>
  <path class="cls-4" d="m1010.52,375.63a1.2,1.2 0 1 0 1.2,1.2a1.2,1.2 0 0 0 -1.2,-1.2z" id="svg_97"/>
  <path class="cls-4" d="m1004.53,375.63a1.2,1.2 0 1 0 1.2,1.2a1.2,1.2 0 0 0 -1.2,-1.2z" id="svg_98"/>
  <path class="cls-4" d="m1010.52,342a1.2,1.2 0 1 0 -1.2,-1.2a1.2,1.2 0 0 0 1.2,1.2z" id="svg_99"/>
  <path class="cls-4" d="m1004.53,342a1.2,1.2 0 1 0 -1.2,-1.2a1.2,1.2 0 0 0 1.2,1.2z" id="svg_100"/>
  <path class="cls-4" d="m1004.53,345.63a1.18,1.18 0 0 0 -1.16,1a12.48,12.49 0 0 1 1.52,-0.95a1,1 0 0 0 -0.36,-0.05z" id="svg_101"/>
  <path class="cls-4" d="m1008.72,343.83a1.2,1.2 0 0 0 -2.4,0a1.17,1.17 0 0 0 0.63,1a12.41,12.42 0 0 1 1.52,-0.33a1.15,1.15 0 0 0 0.25,-0.67z" id="svg_102"/>
  <path class="cls-4" d="m1014.72,343.83a1.2,1.2 0 0 0 -2.4,0a1.16,1.16 0 0 0 0.31,0.78a9.4,9.41 0 0 1 1.29,0.34a1.19,1.19 0 0 0 0.8,-1.12z" id="svg_103"/>
  <path class="cls-4" d="m1022.51,369.63a1.2,1.2 0 1 0 1.2,1.2a1.2,1.2 0 0 0 -1.2,-1.2z" id="svg_104"/>
  <path class="cls-4" d="m1016.52,369.63a1.2,1.2 0 1 0 1.2,1.2a1.2,1.2 0 0 0 -1.2,-1.2z" id="svg_105"/>
  <path class="cls-4" d="m1019.51,366.63a1.2,1.2 0 1 0 1.2,1.2a1.2,1.2 0 0 0 -1.2,-1.2z" id="svg_106"/>
  <path class="cls-4" d="m1025.51,366.63a1.2,1.2 0 1 0 1.2,1.2a1.2,1.2 0 0 0 -1.2,-1.2z" id="svg_107"/>
  <path class="cls-4" d="m1019.51,372.63a1.2,1.2 0 1 0 1.2,1.2a1.2,1.2 0 0 0 -1.2,-1.2z" id="svg_108"/>
  <path class="cls-4" d="m1025.51,372.63a1.2,1.2 0 1 0 1.2,1.2a1.2,1.2 0 0 0 -1.2,-1.2z" id="svg_109"/>
  <path class="cls-4" d="m1028.51,369.63a1.2,1.2 0 1 0 1.2,1.2a1.2,1.2 0 0 0 -1.2,-1.2z" id="svg_110"/>
  <path class="cls-4" d="m1022.51,375.63a1.2,1.2 0 1 0 1.2,1.2a1.2,1.2 0 0 0 -1.2,-1.2z" id="svg_111"/>
  <path class="cls-4" d="m1016.52,375.63a1.2,1.2 0 1 0 1.2,1.2a1.2,1.2 0 0 0 -1.2,-1.2z" id="svg_112"/>
  <path class="cls-4" d="m1027.31,376.83a1.16,1.16 0 0 0 0.26,0.7c0.61,-0.49 1.2,-1 1.77,-1.56a1.2,1.2 0 0 0 -2,0.86l-0.03,0z" id="svg_113"/>
  <path class="cls-4" d="m1022.51,360a1.2,1.2 0 0 0 0,-2.4a1.18,1.18 0 0 0 -0.56,0.16a12.34,12.35 0 0 1 -0.38,1.75a1.18,1.18 0 0 0 0.94,0.49z" id="svg_114"/>
  <path class="cls-4" d="m1025.51,354.63a1.2,1.2 0 1 0 1.2,1.2a1.2,1.2 0 0 0 -1.2,-1.2z" id="svg_115"/>
  <path class="cls-4" d="m1020.71,361.83c0,-0.05 0,-0.09 0,-0.13a14.53,14.54 0 0 1 -0.78,1.25a1.2,1.2 0 0 0 0.78,-1.12z" id="svg_116"/>
  <path class="cls-4" d="m1025.51,360.63a1.2,1.2 0 1 0 1.2,1.2a1.2,1.2 0 0 0 -1.2,-1.2z" id="svg_117"/>
  <path class="cls-4" d="m1028.51,357.63a1.2,1.2 0 1 0 1.2,1.2a1.2,1.2 0 0 0 -1.2,-1.2z" id="svg_118"/>
  <path class="cls-4" d="m1022.51,363.63a1.2,1.2 0 1 0 1.2,1.2a1.2,1.2 0 0 0 -1.2,-1.2z" id="svg_119"/>
  <path class="cls-4" d="m1017.52,365.45c-0.23,0.18 -0.46,0.36 -0.7,0.52a1.15,1.15 0 0 0 0.7,-0.52z" id="svg_120"/>
  <path class="cls-4" d="m1028.51,363.63a1.2,1.2 0 1 0 1.2,1.2a1.2,1.2 0 0 0 -1.2,-1.2z" id="svg_121"/>
  <path class="cls-4" d="m1022.51,339.63a1.2,1.2 0 1 0 1.2,1.2a1.2,1.2 0 0 0 -1.2,-1.2z" id="svg_122"/>
  <path class="cls-4" d="m1016.52,342a1.2,1.2 0 1 0 -1.2,-1.2a1.2,1.2 0 0 0 1.2,1.2z" id="svg_123"/>
  <path class="cls-4" d="m1022.51,345.63a1.2,1.2 0 1 0 1.2,1.2a1.2,1.2 0 0 0 -1.2,-1.2z" id="svg_124"/>
  <path class="cls-4" d="m1017.72,346.83a1.2,1.2 0 0 0 -1.2,-1.2a1.11,1.11 0 0 0 -0.59,0.18a11.5,11.51 0 0 1 1.76,1.18a0.9,0.9 0 0 0 0.03,-0.16z" id="svg_125"/>
  <path class="cls-4" d="m1019.51,345a1.2,1.2 0 1 0 -1.2,-1.2a1.2,1.2 0 0 0 1.2,1.2z" id="svg_126"/>
  <path class="cls-4" d="m1025.51,342.63a1.2,1.2 0 1 0 1.2,1.2a1.2,1.2 0 0 0 -1.2,-1.2z" id="svg_127"/>
  <path class="cls-4" d="m1020.71,349.83a1.2,1.2 0 0 0 -1.2,-1.2a0.5,0.5 0 0 0 -0.13,0a12.25,12.26 0 0 1 1.18,1.73a1.2,1.2 0 0 0 0.15,-0.53z" id="svg_128"/>
  <path class="cls-4" d="m1025.51,348.63a1.2,1.2 0 1 0 1.2,1.2a1.2,1.2 0 0 0 -1.2,-1.2z" id="svg_129"/>
  <path class="cls-4" d="m1028.51,339.63a1.2,1.2 0 1 0 1.2,1.2a1.2,1.2 0 0 0 -1.2,-1.2z" id="svg_130"/>
  <path class="cls-4" d="m1028.51,345.63a1.2,1.2 0 1 0 1.2,1.2a1.2,1.2 0 0 0 -1.2,-1.2z" id="svg_131"/>
  <path class="cls-4" d="m1023.71,352.83a1.19,1.19 0 0 0 -2.28,-0.5a14.32,14.33 0 0 1 0.41,1.46a1.14,1.14 0 0 0 0.67,0.24a1.2,1.2 0 0 0 1.2,-1.2z" id="svg_132"/>
  <path class="cls-4" d="m1028.51,351.63a1.2,1.2 0 1 0 1.2,1.2a1.2,1.2 0 0 0 -1.2,-1.2z" id="svg_133"/>
  <path class="cls-2" d="m947.53,308.59l1.09,-0.91l17.12,20.32l-0.8,0.66l-13.5,15.7l-2.19,1a27.55,27.58 0 0 0 -17.72,-15.65l0.3,-1.05l15.69,-20.07zm18.39,-24.13l17.34,22.17l1.94,-1.52l32.45,-37.74c13.59,-15 16.19,-38.32 6.29,-56.52l-56.81,72.65l-1.22,0.96z" id="svg_134"/>
  <path class="cls-4" d="m951.21,343.08a1.43,1.43 0 0 1 1.75,-0.46l-1.51,1.75l-0.37,0.17a1.43,1.43 0 0 1 0.13,-1.46z" id="svg_135"/>
  <path class="cls-4" d="m959.66,331.43a1.43,1.43 0 0 1 2.54,0.44l-1.57,1.83a1.36,1.36 0 0 1 -0.65,-0.26a1.44,1.44 0 0 1 -0.32,-2.01z" id="svg_136"/>
  <path class="cls-4" d="m955.44,337.26a1.43,1.43 0 0 1 2,-0.32a1.42,1.42 0 0 1 0.22,0.2l-1.85,2.16l-0.06,0a1.43,1.43 0 0 1 -0.31,-2.04z" id="svg_137"/>
  <path class="cls-4" d="m964.21,327.62a1.44,1.44 0 0 1 -0.39,-1.89l1.75,2.07a1.48,1.48 0 0 1 -1.36,-0.18z" id="svg_138"/>
  <path class="cls-4" d="m945.39,338.85a1.44,1.44 0 0 1 2.33,1.69a1.37,1.37 0 0 1 -0.77,0.53a26.12,26.15 0 0 0 -1.58,-2.17s0.01,-0.04 0.02,-0.05z" id="svg_139"/>
  <path class="cls-4" d="m941.58,334.3a1.47,1.47 0 0 1 0.59,1.25c-0.59,-0.52 -1.2,-1 -1.83,-1.47a1.46,1.46 0 0 1 1.24,0.22z" id="svg_140"/>
  <path class="cls-4" d="m950.83,327.68a1.44,1.44 0 1 1 -2,0.32a1.44,1.44 0 0 1 2,-0.32z" id="svg_141"/>
  <path class="cls-4" d="m956.64,331.91a1.44,1.44 0 1 1 -1.69,2.33a1.45,1.45 0 0 1 -0.32,-2a1.43,1.43 0 0 1 2.01,-0.33z" id="svg_142"/>
  <path class="cls-4" d="m955.86,326.88a1.44,1.44 0 1 1 -2,0.32a1.45,1.45 0 0 1 2,-0.32z" id="svg_143"/>
  <path class="cls-4" d="m948.02,323a1.44,1.44 0 1 1 0.32,2a1.43,1.43 0 0 1 -0.32,-2z" id="svg_144"/>
  <path class="cls-4" d="m951.63,332.71a1.44,1.44 0 0 1 -1.7,2.33a1.44,1.44 0 1 1 1.7,-2.33z" id="svg_145"/>
  <path class="cls-4" d="m946.17,330.49a1.44,1.44 0 1 1 -0.32,-2a1.44,1.44 0 0 1 0.32,2z" id="svg_146"/>
  <path class="cls-4" d="m946.6,333.5a1.44,1.44 0 1 1 -2,0.32a1.45,1.45 0 0 1 2,-0.32z" id="svg_147"/>
  <path class="cls-4" d="m952.42,337.73a1.44,1.44 0 1 1 -2,0.32a1.44,1.44 0 0 1 2,-0.32z" id="svg_148"/>
  <path class="cls-4" d="m957.15,317.79l0.5,0.59l0,0a1.4,1.4 0 0 1 -0.5,-0.59z" id="svg_149"/>
  <path class="cls-4" d="m960.4,323.07a1.44,1.44 0 1 1 -0.66,-2.19l0.9,1.07a1.42,1.42 0 0 1 -0.24,1.12z" id="svg_150"/>
  <path class="cls-4" d="m952.57,319.15a1.44,1.44 0 1 1 2,-0.31a1.45,1.45 0 0 1 -2,0.31z" id="svg_151"/>
  <path class="cls-4" d="m953.05,322.17a1.44,1.44 0 0 1 2.33,1.69a1.44,1.44 0 1 1 -2.33,-1.69z" id="svg_152"/>
  <path class="cls-4" d="m960.88,326.08a1.44,1.44 0 1 1 -2,0.32a1.45,1.45 0 0 1 2,-0.32z" id="svg_153"/>
  <path class="cls-4" d="m935.76,330.07a1.42,1.42 0 0 1 0.55,1.52c-0.84,-0.42 -1.71,-0.8 -2.6,-1.14l0,-0.06a1.43,1.43 0 0 1 2.05,-0.32z" id="svg_154"/>
  <path class="cls-4" d="m939.51,321.22a1.43,1.43 0 0 1 -2,0.32l-0.06,-0.05l1.77,-2.26a1.44,1.44 0 0 1 0.29,1.99z" id="svg_155"/>
  <path class="cls-4" d="m943.32,325.78a1.46,1.46 0 0 1 -0.32,-2a1.44,1.44 0 1 1 0.32,2z" id="svg_156"/>
  <path class="cls-4" d="m942.52,320.75a1.44,1.44 0 1 1 2,-0.32a1.46,1.46 0 0 1 -2,0.32z" id="svg_157"/>
  <path class="cls-4" d="m938.29,326.57a1.44,1.44 0 1 1 2,-0.32a1.43,1.43 0 0 1 -2,0.32z" id="svg_158"/>
  <path class="cls-4" d="m935.29,327.05a1.45,1.45 0 0 1 -2,0.32a1.75,1.75 0 0 1 -0.24,-0.23l1.74,-2.22l0.2,0.12a1.45,1.45 0 0 1 0.3,2.01z" id="svg_159"/>
  <path class="cls-4" d="m939.09,331.6a1.44,1.44 0 1 1 2,-0.32a1.44,1.44 0 0 1 -2,0.32z" id="svg_160"/>
  <path class="cls-4" d="m947.96,309.57a1.43,1.43 0 0 1 -1.61,0.52l1.18,-1.5l0.56,-0.47a1.41,1.41 0 0 1 -0.13,1.45z" id="svg_161"/>
  <path class="cls-4" d="m951.78,314.13a1.44,1.44 0 0 1 -0.32,-2a1.49,1.49 0 0 1 0.53,-0.44l1.8,2.14l0,0a1.45,1.45 0 0 1 -2.01,0.3z" id="svg_162"/>
  <path class="cls-4" d="m946.75,314.92a1.44,1.44 0 1 1 2,-0.32a1.43,1.43 0 0 1 -2,0.32z" id="svg_163"/>
  <path class="cls-4" d="m943.74,315.4a1.44,1.44 0 0 1 -1.85,0.41l1.74,-2.23a1.43,1.43 0 0 1 0.11,1.82z" id="svg_164"/>
  <path class="cls-4" d="m947.54,320a1.44,1.44 0 1 1 2,-0.32a1.43,1.43 0 0 1 -2,0.32z" id="svg_165"/>
  <path class="cls-4" d="m985.83,301.51a1.44,1.44 0 0 1 2,-0.32a1.55,1.55 0 0 1 0.39,0.42l-1.79,2.07a1.18,1.18 0 0 1 -0.29,-0.16a1.44,1.44 0 0 1 -0.31,-2.01z" id="svg_166"/>
  <path class="cls-4" d="m987.04,296.16a1.44,1.44 0 1 1 -1.69,2.33a1.44,1.44 0 0 1 1.69,-2.33z" id="svg_167"/>
  <path class="cls-4" d="m980.8,302.31a1.44,1.44 0 0 1 2.33,1.69a1.45,1.45 0 0 1 -1.49,0.56l-1.11,-1.43a1.41,1.41 0 0 1 0.27,-0.82z" id="svg_168"/>
  <path class="cls-4" d="m996.3,289.54a1.44,1.44 0 1 1 -2,0.32a1.44,1.44 0 0 1 2,-0.32z" id="svg_169"/>
  <path class="cls-4" d="m995.5,284.51a1.44,1.44 0 1 1 -1.69,2.33a1.43,1.43 0 0 1 -0.32,-2a1.45,1.45 0 0 1 2.01,-0.33z" id="svg_170"/>
  <path class="cls-4" d="m991.27,290.34a1.44,1.44 0 1 1 -2,0.32a1.43,1.43 0 0 1 2,-0.32z" id="svg_171"/>
  <path class="cls-4" d="m990.37,297.7a1.44,1.44 0 1 1 1.69,-2.33a1.41,1.41 0 0 1 0.59,1.09l-1.29,1.5a1.49,1.49 0 0 1 -0.99,-0.26z" id="svg_172"/>
  <path class="cls-4" d="m1004.75,277.89a1.44,1.44 0 1 1 -2,0.32a1.44,1.44 0 0 1 2,-0.32z" id="svg_173"/>
  <path class="cls-4" d="m1007.77,277.41a1.44,1.44 0 0 1 1.68,-0.49l-1.77,2.05a1.43,1.43 0 0 1 0.09,-1.56z" id="svg_174"/>
  <path class="cls-4" d="m1003.95,272.86a1.44,1.44 0 1 1 -2,0.32a1.44,1.44 0 0 1 2,-0.32z" id="svg_175"/>
  <path class="cls-4" d="m1003.53,283.24a1.46,1.46 0 0 1 1,-0.58l-1.25,1.45a1.47,1.47 0 0 1 0.25,-0.87z" id="svg_176"/>
  <path class="cls-4" d="m999.72,278.69a1.44,1.44 0 1 1 -2,0.32a1.44,1.44 0 0 1 2,-0.32z" id="svg_177"/>
  <path class="cls-4" d="m1000.52,283.72a1.44,1.44 0 1 1 -2,0.32a1.43,1.43 0 0 1 2,-0.32z" id="svg_178"/>
  <path class="cls-4" d="m1013.2,266.24a1.44,1.44 0 1 1 -2,0.32a1.45,1.45 0 0 1 2,-0.32z" id="svg_179"/>
  <path class="cls-4" d="m1016.22,265.76a1.44,1.44 0 0 1 2,-0.31a1.39,1.39 0 0 1 0.51,0.67c-0.35,0.42 -0.71,0.84 -1.08,1.25l-0.56,0.65a1.47,1.47 0 0 1 -0.56,-0.24a1.45,1.45 0 0 1 -0.31,-2.02z" id="svg_180"/>
  <path class="cls-4" d="m1012.41,261.21a1.44,1.44 0 1 1 -1.7,2.33a1.44,1.44 0 0 1 1.7,-2.33z" id="svg_181"/>
  <path class="cls-4" d="m1011.99,271.59a1.44,1.44 0 0 1 2,-0.32l0.17,0.15l-1.87,2.17a1.43,1.43 0 0 1 -0.3,-2z" id="svg_182"/>
  <path class="cls-4" d="m1008.19,267a1.44,1.44 0 1 1 -2,0.32a1.44,1.44 0 0 1 2,-0.32z" id="svg_183"/>
  <path class="cls-4" d="m1008.97,272.07a1.44,1.44 0 1 1 -2,0.32a1.44,1.44 0 0 1 2,-0.32z" id="svg_184"/>
  <path class="cls-4" d="m1021.66,254.59a1.44,1.44 0 1 1 -2,0.32a1.45,1.45 0 0 1 2,-0.32z" id="svg_185"/>
  <path class="cls-4" d="m1024.67,254.11a1.45,1.45 0 0 1 1.58,-0.52c-0.35,0.88 -0.73,1.75 -1.14,2.6l-0.12,-0.06a1.46,1.46 0 0 1 -0.32,-2.02z" id="svg_186"/>
  <path class="cls-4" d="m1020.86,249.56a1.44,1.44 0 1 1 -1.69,2.33a1.43,1.43 0 0 1 -0.32,-2a1.45,1.45 0 0 1 2.01,-0.33z" id="svg_187"/>
  <path class="cls-4" d="m1020.76,262a1.44,1.44 0 0 1 1.69,-2.33a1.41,1.41 0 0 1 0.48,0.61c-0.4,0.68 -0.83,1.34 -1.26,2a1.43,1.43 0 0 1 -0.91,-0.28z" id="svg_188"/>
  <path class="cls-4" d="m1016.64,255.39a1.44,1.44 0 1 1 -2,0.32a1.44,1.44 0 0 1 2,-0.32z" id="svg_189"/>
  <path class="cls-4" d="m1017.44,260.42a1.44,1.44 0 1 1 -2,0.32a1.44,1.44 0 0 1 2,-0.32z" id="svg_190"/>
  <path class="cls-4" d="m1028.09,243.26a1.45,1.45 0 0 1 1.18,-0.59c-0.15,0.93 -0.32,1.86 -0.52,2.78a1.59,1.59 0 0 1 -0.34,-0.18a1.44,1.44 0 0 1 -0.32,-2.01z" id="svg_191"/>
  <path class="cls-4" d="m1027.63,240.24a1.44,1.44 0 1 1 1.7,-2.33a1.5,1.5 0 0 1 0.46,0.58c0,0.47 -0.09,0.95 -0.14,1.42l0,0a1.44,1.44 0 0 1 -2.02,0.33z" id="svg_192"/>
  <path class="cls-4" d="m1025.09,243.74a1.44,1.44 0 1 1 -2,0.32a1.43,1.43 0 0 1 2,-0.32z" id="svg_193"/>
  <path class="cls-4" d="m1025.89,248.77a1.44,1.44 0 1 1 -2,0.32a1.44,1.44 0 0 1 2,-0.32z" id="svg_194"/>
  <path class="cls-4" d="m976.2,292.73a1.44,1.44 0 1 1 -2,0.32a1.44,1.44 0 0 1 2,-0.32z" id="svg_195"/>
  <path class="cls-4" d="m982.02,297a1.44,1.44 0 1 1 -2,0.32a1.45,1.45 0 0 1 2,-0.32z" id="svg_196"/>
  <path class="cls-4" d="m981.22,291.93a1.44,1.44 0 1 1 -2,0.32a1.44,1.44 0 0 1 2,-0.32z" id="svg_197"/>
  <path class="cls-4" d="m975.72,289.71a1.44,1.44 0 1 1 -0.32,-2a1.44,1.44 0 0 1 0.32,2z" id="svg_198"/>
  <path class="cls-4" d="m977,297.76a1.43,1.43 0 0 1 0.54,1.54l-1.4,-1.81a1.39,1.39 0 0 1 0.86,0.27z" id="svg_199"/>
  <path class="cls-4" d="m984.97,283.09a1.44,1.44 0 1 1 -0.31,-2a1.44,1.44 0 0 1 0.31,2z" id="svg_200"/>
  <path class="cls-4" d="m990.47,285.31a1.44,1.44 0 1 1 -2,0.32a1.44,1.44 0 0 1 2,-0.32z" id="svg_201"/>
  <path class="cls-4" d="m987.66,280.6a1.44,1.44 0 1 1 0.32,2a1.44,1.44 0 0 1 -0.32,-2z" id="svg_202"/>
  <path class="cls-4" d="m982.13,278.38a1.44,1.44 0 1 1 2,-0.32a1.43,1.43 0 0 1 -2,0.32z" id="svg_203"/>
  <path class="cls-4" d="m985.45,286.11a1.43,1.43 0 0 1 0.32,2a1.44,1.44 0 1 1 -2.33,-1.69a1.43,1.43 0 0 1 2.01,-0.31z" id="svg_204"/>
  <path class="cls-4" d="m977.93,284.2a1.44,1.44 0 0 1 1.7,-2.33a1.44,1.44 0 1 1 -1.7,2.33z" id="svg_205"/>
  <path class="cls-4" d="m980.74,288.91a1.44,1.44 0 1 1 -2.33,-1.69a1.45,1.45 0 0 1 2,-0.32a1.43,1.43 0 0 1 0.33,2.01z" id="svg_206"/>
  <path class="cls-4" d="m986.25,291.14a1.44,1.44 0 1 1 -2,0.31a1.45,1.45 0 0 1 2,-0.31z" id="svg_207"/>
  <path class="cls-4" d="m993.43,271.44a1.44,1.44 0 1 1 -0.32,-2a1.44,1.44 0 0 1 0.32,2z" id="svg_208"/>
  <path class="cls-4" d="m996.92,274a1.44,1.44 0 1 1 0.32,2a1.44,1.44 0 0 1 -0.32,-2z" id="svg_209"/>
  <path class="cls-4" d="m996.45,271a1.44,1.44 0 0 1 1.69,-2.33a1.45,1.45 0 0 1 0.32,2a1.43,1.43 0 0 1 -2.01,0.33z" id="svg_210"/>
  <path class="cls-4" d="m990.62,266.73a1.44,1.44 0 1 1 2,-0.32a1.44,1.44 0 0 1 -2,0.32z" id="svg_211"/>
  <path class="cls-4" d="m991.89,274.78a1.44,1.44 0 1 1 0.32,2a1.44,1.44 0 0 1 -0.32,-2z" id="svg_212"/>
  <path class="cls-4" d="m986.4,272.55a1.44,1.44 0 1 1 2,-0.31a1.44,1.44 0 0 1 -2,0.31z" id="svg_213"/>
  <path class="cls-4" d="m989.2,277.26a1.44,1.44 0 1 1 -0.32,-2a1.44,1.44 0 0 1 0.32,2z" id="svg_214"/>
  <path class="cls-4" d="m994.7,279.49a1.43,1.43 0 0 1 0.32,2a1.44,1.44 0 1 1 -0.32,-2z" id="svg_215"/>
  <path class="cls-4" d="m1001.88,259.79a1.44,1.44 0 1 1 -0.32,-2a1.44,1.44 0 0 1 0.32,2z" id="svg_216"/>
  <path class="cls-4" d="m1005.38,262.33a1.44,1.44 0 1 1 0.32,2a1.44,1.44 0 0 1 -0.32,-2z" id="svg_217"/>
  <path class="cls-4" d="m1004.9,259.31a1.44,1.44 0 1 1 2,-0.32a1.44,1.44 0 0 1 -2,0.32z" id="svg_218"/>
  <path class="cls-4" d="m999.11,255.08a1.44,1.44 0 1 1 2,-0.32a1.44,1.44 0 0 1 -2,0.32z" id="svg_219"/>
  <path class="cls-4" d="m1000.67,265.14a1.44,1.44 0 1 1 2,-0.32a1.45,1.45 0 0 1 -2,0.32z" id="svg_220"/>
  <path class="cls-4" d="m994.85,260.9a1.44,1.44 0 1 1 2,-0.31a1.45,1.45 0 0 1 -2,0.31z" id="svg_221"/>
  <path class="cls-4" d="m997.66,265.61a1.44,1.44 0 1 1 -2.33,-1.69a1.44,1.44 0 0 1 2.33,1.69z" id="svg_222"/>
  <path class="cls-4" d="m1001.11,268.15a1.44,1.44 0 0 1 2.33,1.7a1.44,1.44 0 1 1 -2.33,-1.7z" id="svg_223"/>
  <path class="cls-4" d="m1010.34,248.14a1.44,1.44 0 1 1 -0.32,-2a1.44,1.44 0 0 1 0.32,2z" id="svg_224"/>
  <path class="cls-4" d="m1013.83,250.68a1.44,1.44 0 1 1 0.32,2a1.44,1.44 0 0 1 -0.32,-2z" id="svg_225"/>
  <path class="cls-4" d="m1013.35,247.66a1.44,1.44 0 1 1 2,-0.32a1.45,1.45 0 0 1 -2,0.32z" id="svg_226"/>
  <path class="cls-4" d="m1007.54,243.43a1.44,1.44 0 1 1 2,-0.32a1.44,1.44 0 0 1 -2,0.32z" id="svg_227"/>
  <path class="cls-4" d="m1009.1,253.49a1.45,1.45 0 0 1 -0.32,-2a1.44,1.44 0 0 1 2.33,1.69a1.45,1.45 0 0 1 -2.01,0.31z" id="svg_228"/>
  <path class="cls-4" d="m1003.31,249.25a1.43,1.43 0 0 1 -0.32,-2a1.44,1.44 0 1 1 0.32,2z" id="svg_229"/>
  <path class="cls-4" d="m1006.11,254a1.43,1.43 0 0 1 -2,0.32a1.44,1.44 0 1 1 2,-0.32z" id="svg_230"/>
  <path class="cls-4" d="m1009.6,256.5a1.44,1.44 0 1 1 0.32,2a1.44,1.44 0 0 1 -0.32,-2z" id="svg_231"/>
  <path class="cls-4" d="m1018.79,236.49a1.44,1.44 0 1 1 -0.32,-2a1.44,1.44 0 0 1 0.32,2z" id="svg_232"/>
  <path class="cls-4" d="m1022.29,239a1.44,1.44 0 1 1 0.31,2a1.44,1.44 0 0 1 -0.31,-2z" id="svg_233"/>
  <path class="cls-4" d="m1023.82,235.69a1.44,1.44 0 1 1 -0.32,-2a1.43,1.43 0 0 1 0.32,2z" id="svg_234"/>
  <path class="cls-4" d="m1015.99,231.78a1.44,1.44 0 1 1 2,-0.32a1.45,1.45 0 0 1 -2,0.32z" id="svg_235"/>
  <path class="cls-4" d="m1017.59,241.84a1.44,1.44 0 1 1 1.69,-2.33a1.44,1.44 0 1 1 -1.69,2.33z" id="svg_236"/>
  <path class="cls-4" d="m1011.76,237.61a1.44,1.44 0 1 1 1.69,-2.33a1.43,1.43 0 0 1 0.32,2a1.45,1.45 0 0 1 -2.01,0.33z" id="svg_237"/>
  <path class="cls-4" d="m1014.57,242.32a1.44,1.44 0 1 1 -0.32,-2a1.44,1.44 0 0 1 0.32,2z" id="svg_238"/>
  <path class="cls-4" d="m1018.1,244.85a1.44,1.44 0 1 1 0.32,2a1.46,1.46 0 0 1 -0.32,-2z" id="svg_239"/>
  <path class="cls-4" d="m1025.24,225.16a1.44,1.44 0 1 1 2,-0.32a1.45,1.45 0 0 1 -2,0.32z" id="svg_240"/>
  <path class="cls-4" d="m1024.45,220.13a1.44,1.44 0 1 1 2,-0.32a1.43,1.43 0 0 1 -2,0.32z" id="svg_241"/>
  <path class="cls-4" d="m1026.09,230.19a1.44,1.44 0 1 1 2,-0.32a1.44,1.44 0 0 1 -2,0.32z" id="svg_242"/>
  <path class="cls-4" d="m1020.21,226a1.44,1.44 0 1 1 2,-0.32a1.45,1.45 0 0 1 -2,0.32z" id="svg_243"/>
  <path class="cls-4" d="m1023.02,230.67a1.44,1.44 0 1 1 -0.32,-2a1.44,1.44 0 0 1 0.32,2z" id="svg_244"/>
  <path class="cls-4" d="m1026.52,233.2a1.44,1.44 0 1 1 0.32,2a1.44,1.44 0 0 1 -0.32,-2z" id="svg_245"/>
  <path class="cls-4" d="m970.38,288.5a1.45,1.45 0 0 1 0.32,2l0,0l-1.71,-2.19a1.46,1.46 0 0 1 1.39,0.19z" id="svg_246"/>
  <path class="cls-4" d="m967.89,285.8a1.44,1.44 0 1 1 2,-0.32a1.45,1.45 0 0 1 -2,0.32z" id="svg_247"/>
  <path class="cls-4" d="m977.14,279.18a1.44,1.44 0 1 1 2,-0.32a1.44,1.44 0 0 1 -2,0.32z" id="svg_248"/>
  <path class="cls-4" d="m976.35,274.15a1.45,1.45 0 0 1 -0.32,-2a1.44,1.44 0 1 1 0.32,2z" id="svg_249"/>
  <path class="cls-4" d="m972.14,280a1.44,1.44 0 1 1 2,-0.32a1.44,1.44 0 0 1 -2,0.32z" id="svg_250"/>
  <path class="cls-4" d="m972.92,285a1.44,1.44 0 0 1 1.69,-2.33a1.45,1.45 0 0 1 0.32,2a1.43,1.43 0 0 1 -2.01,0.33z" id="svg_251"/>
  <path class="cls-4" d="m985.6,267.53a1.46,1.46 0 0 1 -0.32,-2a1.44,1.44 0 1 1 0.32,2z" id="svg_252"/>
  <path class="cls-4" d="m986.5,260.17a1.44,1.44 0 0 1 -1.69,2.33a1.41,1.41 0 0 1 -0.56,-0.87l1.35,-1.73a1.42,1.42 0 0 1 0.9,0.27z" id="svg_253"/>
  <path class="cls-4" d="m982.27,266a1.44,1.44 0 0 1 -1.7,2.33a1.42,1.42 0 0 1 -0.58,-1.25l1,-1.28a1.44,1.44 0 0 1 1.28,0.2z" id="svg_254"/>
  <path class="cls-4" d="m981.37,273.35a1.44,1.44 0 1 1 2,-0.32a1.44,1.44 0 0 1 -2,0.32z" id="svg_255"/>
  <path class="cls-4" d="m994.06,255.88a1.44,1.44 0 1 1 2,-0.32a1.44,1.44 0 0 1 -2,0.32z" id="svg_256"/>
  <path class="cls-4" d="m995.27,250.53a1.44,1.44 0 0 1 -2,0.32a1.29,1.29 0 0 1 -0.32,-0.34l1.69,-2.16a1.1,1.1 0 0 1 0.32,0.17a1.43,1.43 0 0 1 0.31,2.01z" id="svg_257"/>
  <path class="cls-4" d="m991.04,256.35a1.43,1.43 0 0 1 -2,0.32a1.4,1.4 0 0 1 -0.46,-0.57l1.56,-2a1.32,1.32 0 0 1 0.59,0.24a1.44,1.44 0 0 1 0.31,2.01z" id="svg_258"/>
  <path class="cls-4" d="m989.82,261.7a1.44,1.44 0 1 1 2,-0.32a1.44,1.44 0 0 1 -2,0.32z" id="svg_259"/>
  <path class="cls-4" d="m1002.51,244.23a1.44,1.44 0 1 1 2,-0.32a1.44,1.44 0 0 1 -2,0.32z" id="svg_260"/>
  <path class="cls-4" d="m1003.73,238.88a1.44,1.44 0 0 1 -2,0.34l1.76,-2.25a1.44,1.44 0 0 1 0.24,1.91z" id="svg_261"/>
  <path class="cls-4" d="m999.49,244.7a1.43,1.43 0 0 1 -2,0.32l-0.15,-0.13l1.76,-2.25l0.08,0.05a1.43,1.43 0 0 1 0.31,2.01z" id="svg_262"/>
  <path class="cls-4" d="m998.28,250.05a1.44,1.44 0 1 1 2,-0.32a1.43,1.43 0 0 1 -2,0.32z" id="svg_263"/>
  <path class="cls-4" d="m1010.96,232.58a1.44,1.44 0 1 1 2,-0.32a1.46,1.46 0 0 1 -2,0.32z" id="svg_264"/>
  <path class="cls-4" d="m1012.18,227.23a1.45,1.45 0 0 1 -1.48,0.56l1.6,-2a1.42,1.42 0 0 1 -0.12,1.44z" id="svg_265"/>
  <path class="cls-4" d="m1007.96,233.05a1.45,1.45 0 0 1 -1.74,0.48l1.71,-2.19a1.42,1.42 0 0 1 0.03,1.71z" id="svg_266"/>
  <path class="cls-4" d="m1006.74,238.4a1.44,1.44 0 1 1 1.69,-2.33a1.44,1.44 0 1 1 -1.69,2.33z" id="svg_267"/>
  <path class="cls-4" d="m1019.42,220.93a1.44,1.44 0 1 1 2,-0.32a1.45,1.45 0 0 1 -2,0.32z" id="svg_268"/>
  <path class="cls-4" d="m1020.63,215.58a1.43,1.43 0 0 1 -0.81,0.54l1.08,-1.38a1.4,1.4 0 0 1 -0.27,0.84z" id="svg_269"/>
  <path class="cls-4" d="m1016.41,221.4a1.43,1.43 0 0 1 -1.18,0.6l1.41,-1.8a1.45,1.45 0 0 1 -0.23,1.2z" id="svg_270"/>
  <path class="cls-4" d="m1015.2,226.75a1.44,1.44 0 1 1 2,-0.32a1.43,1.43 0 0 1 -2,0.32z" id="svg_271"/>
  <path class="cls-4" d="m1025.66,214.78a1.44,1.44 0 1 1 -2.33,-1.69a1.45,1.45 0 0 1 1.49,-0.56c0.34,0.68 0.65,1.37 1,2.06a0.72,0.72 0 0 1 -0.16,0.19z" id="svg_272"/>
  <path class="cls-3" d="m965.93,284.46l17.34,22.17l17.22,22l2.94,0.86a27.49,27.52 0 0 0 -19.54,19.08l-1,-0.3l-17.14,-20.27l-17.12,-20.33l-33.97,-40.31c-13.6,-15 -16.19,-38.32 -6.3,-56.52l57.57,73.62zm-0.78,22.61a2,2 0 1 0 -2,-2a2,2 0 0 0 2,2z" id="svg_273"/>
  <line class="cls-5" id="svg_274" x1="964.95" x2="949.66" y1="328.67" y2="346"/>
  <path class="cls-5" d="m967.14,283.5l56.81,-72.65c9.9,18.2 7.29,41.51 -6.29,56.52l-32.45,37.74" id="svg_275"/>
  <line class="cls-5" id="svg_276" x1="931.84" x2="947.53" y1="328.67" y2="308.59"/>
  <path class="cls-5" d="m1000.49,328.67l-17.22,-22l-17.34,-22.17l-57.54,-73.61c-9.89,18.2 -7.29,41.51 6.3,56.52l33.97,40.31l17.09,20.28l17.09,20.3" id="svg_277"/>
  <path class="cls-6" d="m965.2,299.6a5.49,5.5 0 1 0 5.48,5.52a5.49,5.5 0 0 0 -5.48,-5.52z" id="svg_278"/>
  <path class="cls-5" d="m983.89,348.61a27.46,27.49 0 1 0 26.41,-19.94a27.8,27.83 0 0 0 -6.87,0.86a27.49,27.52 0 0 0 -19.54,19.08z" id="svg_279"/>
  <circle class="cls-5" cx="1010.3" cy="356.16" id="svg_280" r="11.77"/>
  <path class="cls-5" d="m949.26,345.37a27.42,27.45 0 1 1 -17.72,-15.65a27.45,27.48 0 0 1 17.72,15.65z" id="svg_281"/>
  <circle class="cls-5" cx="923.99" cy="356.16" id="svg_282" r="11.77"/>
  <rect class="cls-7" height="300" id="svg_283" rx="150" width="299.71" x="449.64" y="147.25"/>
  <path class="cls-7" d="m672.82,229.5l0,8.05l-30.09,0l0,-8.05a15.05,15.06 0 0 1 30.09,0z" id="svg_284"/>
  <path class="cls-8" d="m645.33,236.44a1.44,1.44 0 0 0 -2.6,-0.85l0,1.71a1.88,1.88 0 0 0 0.24,0.25l1.83,0a1.43,1.43 0 0 0 0.53,-1.11z" id="svg_285"/>
  <path class="cls-8" d="m647.45,231.4a1.44,1.44 0 1 0 1.44,1.44a1.44,1.44 0 0 0 -1.44,-1.44z" id="svg_286"/>
  <path class="cls-8" d="m645.33,222a1.38,1.38 0 0 0 -0.19,-0.69a14.87,14.88 0 0 0 -1.14,2.12a1.43,1.43 0 0 0 1.33,-1.43z" id="svg_287"/>
  <path class="cls-8" d="m648.92,218.44a1.45,1.45 0 0 0 -0.3,-0.86a14.78,14.79 0 0 0 -2.09,1.94a1.44,1.44 0 0 0 2.39,-1.08z" id="svg_288"/>
  <path class="cls-8" d="m647.45,224.2a1.44,1.44 0 1 0 1.44,1.44a1.44,1.44 0 0 0 -1.44,-1.44z" id="svg_289"/>
  <path class="cls-8" d="m643.89,230.68a1.44,1.44 0 1 0 0,-2.88a1.46,1.46 0 0 0 -1.1,0.52c0,0.39 -0.06,0.78 -0.06,1.18l0,0.6a1.44,1.44 0 0 0 1.16,0.58z" id="svg_290"/>
  <path class="cls-8" d="m659.71,236.44a1.44,1.44 0 1 0 -2.88,0a1.42,1.42 0 0 0 0.52,1.11l1.83,0a1.43,1.43 0 0 0 0.53,-1.11z" id="svg_291"/>
  <path class="cls-8" d="m652.52,236.44a1.44,1.44 0 0 0 -2.88,0a1.42,1.42 0 0 0 0.52,1.11l1.83,0a1.43,1.43 0 0 0 0.53,-1.11z" id="svg_292"/>
  <path class="cls-8" d="m654.68,231.4a1.44,1.44 0 1 0 1.44,1.44a1.44,1.44 0 0 0 -1.44,-1.44z" id="svg_293"/>
  <path class="cls-8" d="m661.87,231.4a1.44,1.44 0 1 0 1.44,1.44a1.44,1.44 0 0 0 -1.44,-1.44z" id="svg_294"/>
  <path class="cls-8" d="m658.27,220.6a1.44,1.44 0 1 0 1.44,1.44a1.44,1.44 0 0 0 -1.44,-1.44z" id="svg_295"/>
  <path class="cls-8" d="m651.08,220.6a1.44,1.44 0 1 0 1.44,1.44a1.44,1.44 0 0 0 -1.44,-1.44z" id="svg_296"/>
  <path class="cls-8" d="m654.68,217a1.44,1.44 0 1 0 1.44,1.44a1.44,1.44 0 0 0 -1.44,-1.44z" id="svg_297"/>
  <path class="cls-8" d="m661.87,217a1.44,1.44 0 1 0 1.44,1.44a1.44,1.44 0 0 0 -1.44,-1.44z" id="svg_298"/>
  <path class="cls-8" d="m654.68,224.2a1.44,1.44 0 1 0 1.44,1.44a1.44,1.44 0 0 0 -1.44,-1.44z" id="svg_299"/>
  <path class="cls-8" d="m661.87,224.2a1.44,1.44 0 1 0 1.44,1.44a1.44,1.44 0 0 0 -1.44,-1.44z" id="svg_300"/>
  <path class="cls-8" d="m658.27,227.8a1.44,1.44 0 1 0 1.44,1.44a1.44,1.44 0 0 0 -1.44,-1.44z" id="svg_301"/>
  <path class="cls-8" d="m651.08,227.8a1.44,1.44 0 1 0 1.44,1.44a1.44,1.44 0 0 0 -1.44,-1.44z" id="svg_302"/>
  <path class="cls-8" d="m658.27,216.28a1.44,1.44 0 0 0 1.44,-1.44a1.15,1.15 0 0 0 0,-0.26a14.77,14.78 0 0 0 -1.9,-0.13c-0.3,0 -0.6,0 -0.91,0.05a1.86,1.86 0 0 0 0,0.34a1.43,1.43 0 0 0 1.37,1.44z" id="svg_303"/>
  <path class="cls-8" d="m652.37,215.47a14.12,14.13 0 0 0 -1.68,0.76a1.6,1.6 0 0 0 0.39,0.05a1.44,1.44 0 0 0 1.29,-0.81z" id="svg_304"/>
  <path class="cls-8" d="m671.22,236.44a1.42,1.42 0 0 0 0.52,1.11l1.08,0l0,-2.55l-0.16,0a1.44,1.44 0 0 0 -1.44,1.44z" id="svg_305"/>
  <path class="cls-8" d="m666.9,236.44a1.44,1.44 0 0 0 -2.88,0a1.42,1.42 0 0 0 0.52,1.11l1.83,0a1.43,1.43 0 0 0 0.53,-1.11z" id="svg_306"/>
  <path class="cls-8" d="m669.06,231.4a1.44,1.44 0 1 0 1.44,1.44a1.44,1.44 0 0 0 -1.44,-1.44z" id="svg_307"/>
  <path class="cls-8" d="m665.44,220.6a1.44,1.44 0 1 0 1.44,1.44a1.44,1.44 0 0 0 -1.44,-1.44z" id="svg_308"/>
  <path class="cls-8" d="m669.06,219.88l0.26,0a15.84,15.86 0 0 0 -1.68,-1.7a2.64,2.64 0 0 0 0,0.28a1.43,1.43 0 0 0 1.42,1.42z" id="svg_309"/>
  <path class="cls-8" d="m669.06,224.2a1.44,1.44 0 1 0 1.44,1.44a1.44,1.44 0 0 0 -1.44,-1.44z" id="svg_310"/>
  <path class="cls-8" d="m671.22,229.24a1.43,1.43 0 0 0 1.44,1.44l0.16,0l0,-1.18a15.79,15.81 0 0 0 -0.1,-1.69l-0.06,0a1.44,1.44 0 0 0 -1.44,1.43z" id="svg_311"/>
  <path class="cls-8" d="m665.44,227.8a1.44,1.44 0 1 0 1.44,1.44a1.44,1.44 0 0 0 -1.44,-1.44z" id="svg_312"/>
  <path class="cls-3" d="m642.73,214.45l15.06,0a15.05,15.06 0 0 0 -15.06,15.05l0,135.5a14.99,15 0 1 1 -30.06,0l0,-7.53l-67.69,0l0,-128a14.99,15 0 0 1 15.04,-15.05l82.72,0l0,0.03z" id="svg_313"/>
  <path class="cls-7" d="m627.69,380.05l-86.48,0a14.99,15 0 0 1 -14.99,-15.05l0,-3.77a3.77,3.77 0 0 1 3.77,-3.76l82.72,0l0,7.53a14.99,15 0 0 0 14.98,15.05z" id="svg_314"/>
  <path class="cls-8" d="m532.39,375.4a1.44,1.44 0 0 0 -1.26,0.75a14.52,14.53 0 0 0 2.28,1.7a1.41,1.41 0 0 0 0.42,-1a1.45,1.45 0 0 0 -1.44,-1.45z" id="svg_315"/>
  <path class="cls-8" d="m528.8,364.6a1.44,1.44 0 1 0 1.44,1.44a1.44,1.44 0 0 0 -1.44,-1.44z" id="svg_316"/>
  <path class="cls-8" d="m526.64,362.44a1.42,1.42 0 0 0 -0.46,-1l0,2.09a1.43,1.43 0 0 0 0.46,-1.09z" id="svg_317"/>
  <path class="cls-8" d="m532.39,361a1.44,1.44 0 1 0 1.44,1.44a1.44,1.44 0 0 0 -1.44,-1.44z" id="svg_318"/>
  <path class="cls-8" d="m532.39,368.2a1.44,1.44 0 1 0 1.44,1.44a1.44,1.44 0 0 0 -1.44,-1.44z" id="svg_319"/>
  <path class="cls-8" d="m530.24,373.24a1.45,1.45 0 0 0 -1.44,-1.44a1.41,1.41 0 0 0 -0.85,0.29a15.67,15.69 0 0 0 1.58,2.39a1.46,1.46 0 0 0 0.71,-1.24z" id="svg_320"/>
  <path class="cls-8" d="m528.8,360.28a1.44,1.44 0 0 0 0.57,-2.76a3.79,3.79 0 0 0 -2,0.94a1.65,1.65 0 0 0 -0.05,0.38a1.43,1.43 0 0 0 1.48,1.44z" id="svg_321"/>
  <path class="cls-8" d="m543.18,379a1.44,1.44 0 0 0 -1.38,1.05l2.75,0a1.44,1.44 0 0 0 -1.37,-1.05z" id="svg_322"/>
  <path class="cls-8" d="m535.99,379l-0.21,0c0.41,0.16 0.82,0.31 1.24,0.43a1.41,1.41 0 0 0 -1.03,-0.43z" id="svg_323"/>
  <path class="cls-8" d="m539.56,375.4a1.44,1.44 0 1 0 1.44,1.44a1.44,1.44 0 0 0 -1.44,-1.44z" id="svg_324"/>
  <path class="cls-8" d="m546.78,375.4a1.44,1.44 0 1 0 1.44,1.44a1.44,1.44 0 0 0 -1.44,-1.44z" id="svg_325"/>
  <path class="cls-8" d="m543.18,364.6a1.44,1.44 0 1 0 1.44,1.44a1.44,1.44 0 0 0 -1.44,-1.44z" id="svg_326"/>
  <path class="cls-8" d="m535.99,364.6a1.44,1.44 0 1 0 1.44,1.44a1.44,1.44 0 0 0 -1.44,-1.44z" id="svg_327"/>
  <path class="cls-8" d="m539.56,361a1.44,1.44 0 1 0 1.44,1.44a1.44,1.44 0 0 0 -1.44,-1.44z" id="svg_328"/>
  <path class="cls-8" d="m546.78,361a1.44,1.44 0 1 0 1.44,1.44a1.44,1.44 0 0 0 -1.44,-1.44z" id="svg_329"/>
  <path class="cls-8" d="m539.56,368.2a1.44,1.44 0 1 0 1.44,1.44a1.44,1.44 0 0 0 -1.44,-1.44z" id="svg_330"/>
  <path class="cls-8" d="m546.78,368.2a1.44,1.44 0 1 0 1.44,1.44a1.44,1.44 0 0 0 -1.44,-1.44z" id="svg_331"/>
  <path class="cls-8" d="m543.18,371.8a1.44,1.44 0 1 0 1.44,1.44a1.44,1.44 0 0 0 -1.44,-1.44z" id="svg_332"/>
  <path class="cls-8" d="m535.99,371.8a1.44,1.44 0 1 0 1.44,1.44a1.44,1.44 0 0 0 -1.44,-1.44z" id="svg_333"/>
  <path class="cls-8" d="m541.75,358.84a1.44,1.44 0 1 0 1.83,-1.37l-0.79,0a1.43,1.43 0 0 0 -1.04,1.37z" id="svg_334"/>
  <path class="cls-8" d="m534.56,358.84a1.44,1.44 0 1 0 1.83,-1.37l-0.83,0a1.43,1.43 0 0 0 -1,1.37z" id="svg_335"/>
  <path class="cls-8" d="m557.54,379a1.44,1.44 0 0 0 -1.38,1.05l2.75,0a1.44,1.44 0 0 0 -1.37,-1.05z" id="svg_336"/>
  <path class="cls-8" d="m550.38,379a1.44,1.44 0 0 0 -1.38,1.05l2.75,0a1.44,1.44 0 0 0 -1.37,-1.05z" id="svg_337"/>
  <path class="cls-8" d="m553.97,375.4a1.44,1.44 0 1 0 1.44,1.44a1.44,1.44 0 0 0 -1.44,-1.44z" id="svg_338"/>
  <path class="cls-8" d="m561.17,375.4a1.44,1.44 0 1 0 1.44,1.44a1.44,1.44 0 0 0 -1.44,-1.44z" id="svg_339"/>
  <path class="cls-8" d="m557.54,364.6a1.44,1.44 0 1 0 1.44,1.44a1.44,1.44 0 0 0 -1.44,-1.44z" id="svg_340"/>
  <path class="cls-8" d="m550.38,364.6a1.44,1.44 0 1 0 1.44,1.44a1.44,1.44 0 0 0 -1.44,-1.44z" id="svg_341"/>
  <path class="cls-8" d="m553.97,361a1.44,1.44 0 1 0 1.44,1.44a1.44,1.44 0 0 0 -1.44,-1.44z" id="svg_342"/>
  <path class="cls-8" d="m561.17,361a1.44,1.44 0 1 0 1.44,1.44a1.44,1.44 0 0 0 -1.44,-1.44z" id="svg_343"/>
  <path class="cls-8" d="m553.97,368.2a1.44,1.44 0 1 0 1.44,1.44a1.44,1.44 0 0 0 -1.44,-1.44z" id="svg_344"/>
  <path class="cls-8" d="m561.17,368.2a1.44,1.44 0 1 0 1.44,1.44a1.44,1.44 0 0 0 -1.44,-1.44z" id="svg_345"/>
  <path class="cls-8" d="m557.54,371.8a1.44,1.44 0 1 0 1.44,1.44a1.44,1.44 0 0 0 -1.44,-1.44z" id="svg_346"/>
  <path class="cls-8" d="m550.38,371.8a1.44,1.44 0 1 0 1.44,1.44a1.44,1.44 0 0 0 -1.44,-1.44z" id="svg_347"/>
  <path class="cls-8" d="m556.13,358.84a1.44,1.44 0 1 0 1.83,-1.37l-0.79,0a1.43,1.43 0 0 0 -1.04,1.37z" id="svg_348"/>
  <path class="cls-8" d="m548.94,358.84a1.44,1.44 0 1 0 1.83,-1.37l-0.79,0a1.43,1.43 0 0 0 -1.04,1.37z" id="svg_349"/>
  <path class="cls-8" d="m571.96,379a1.44,1.44 0 0 0 -1.38,1.05l2.75,0a1.44,1.44 0 0 0 -1.37,-1.05z" id="svg_350"/>
  <path class="cls-8" d="m564.76,379a1.44,1.44 0 0 0 -1.38,1.05l2.75,0a1.44,1.44 0 0 0 -1.37,-1.05z" id="svg_351"/>
  <path class="cls-8" d="m568.36,375.4a1.44,1.44 0 1 0 1.44,1.44a1.44,1.44 0 0 0 -1.44,-1.44z" id="svg_352"/>
  <path class="cls-8" d="m575.52,375.4a1.44,1.44 0 1 0 1.44,1.44a1.44,1.44 0 0 0 -1.44,-1.44z" id="svg_353"/>
  <path class="cls-8" d="m571.96,364.6a1.44,1.44 0 1 0 1.44,1.44a1.44,1.44 0 0 0 -1.44,-1.44z" id="svg_354"/>
  <path class="cls-8" d="m564.76,364.6a1.44,1.44 0 1 0 1.44,1.44a1.44,1.44 0 0 0 -1.44,-1.44z" id="svg_355"/>
  <path class="cls-8" d="m568.36,361a1.44,1.44 0 1 0 1.44,1.44a1.44,1.44 0 0 0 -1.44,-1.44z" id="svg_356"/>
  <path class="cls-8" d="m575.52,361a1.44,1.44 0 1 0 1.44,1.44a1.44,1.44 0 0 0 -1.44,-1.44z" id="svg_357"/>
  <path class="cls-8" d="m568.36,368.2a1.44,1.44 0 1 0 1.44,1.44a1.44,1.44 0 0 0 -1.44,-1.44z" id="svg_358"/>
  <path class="cls-8" d="m575.52,368.2a1.44,1.44 0 1 0 1.44,1.44a1.44,1.44 0 0 0 -1.44,-1.44z" id="svg_359"/>
  <path class="cls-8" d="m571.96,371.8a1.44,1.44 0 1 0 1.44,1.44a1.44,1.44 0 0 0 -1.44,-1.44z" id="svg_360"/>
  <path class="cls-8" d="m564.76,371.8a1.44,1.44 0 1 0 1.44,1.44a1.44,1.44 0 0 0 -1.44,-1.44z" id="svg_361"/>
  <path class="cls-8" d="m570.53,358.84a1.44,1.44 0 1 0 1.83,-1.37l-0.83,0a1.43,1.43 0 0 0 -1,1.37z" id="svg_362"/>
  <path class="cls-8" d="m563.32,358.84a1.44,1.44 0 1 0 1.83,-1.37l-0.79,0a1.43,1.43 0 0 0 -1.04,1.37z" id="svg_363"/>
  <path class="cls-8" d="m586.34,379a1.44,1.44 0 0 0 -1.38,1.05l2.75,0a1.44,1.44 0 0 0 -1.37,-1.05z" id="svg_364"/>
  <path class="cls-8" d="m579.15,379a1.44,1.44 0 0 0 -1.38,1.05l2.75,0a1.44,1.44 0 0 0 -1.37,-1.05z" id="svg_365"/>
  <path class="cls-8" d="m582.75,375.4a1.44,1.44 0 1 0 1.44,1.44a1.44,1.44 0 0 0 -1.44,-1.44z" id="svg_366"/>
  <path class="cls-8" d="m589.94,375.4a1.44,1.44 0 1 0 1.44,1.44a1.44,1.44 0 0 0 -1.44,-1.44z" id="svg_367"/>
  <path class="cls-8" d="m586.34,364.6a1.44,1.44 0 1 0 1.44,1.44a1.44,1.44 0 0 0 -1.44,-1.44z" id="svg_368"/>
  <path class="cls-8" d="m579.15,364.6a1.44,1.44 0 1 0 1.44,1.44a1.44,1.44 0 0 0 -1.44,-1.44z" id="svg_369"/>
  <path class="cls-8" d="m582.75,361a1.44,1.44 0 1 0 1.44,1.44a1.44,1.44 0 0 0 -1.44,-1.44z" id="svg_370"/>
  <path class="cls-8" d="m589.94,361a1.44,1.44 0 1 0 1.44,1.44a1.44,1.44 0 0 0 -1.44,-1.44z" id="svg_371"/>
  <path class="cls-8" d="m582.75,368.2a1.44,1.44 0 1 0 1.44,1.44a1.44,1.44 0 0 0 -1.44,-1.44z" id="svg_372"/>
  <path class="cls-8" d="m589.94,368.2a1.44,1.44 0 1 0 1.44,1.44a1.44,1.44 0 0 0 -1.44,-1.44z" id="svg_373"/>
  <path class="cls-8" d="m586.34,371.8a1.44,1.44 0 1 0 1.44,1.44a1.44,1.44 0 0 0 -1.44,-1.44z" id="svg_374"/>
  <path class="cls-8" d="m579.15,371.8a1.44,1.44 0 1 0 1.44,1.44a1.44,1.44 0 0 0 -1.44,-1.44z" id="svg_375"/>
  <path class="cls-8" d="m584.9,358.84a1.44,1.44 0 1 0 1.83,-1.37l-0.79,0a1.43,1.43 0 0 0 -1.04,1.37z" id="svg_376"/>
  <path class="cls-8" d="m577.71,358.84a1.44,1.44 0 1 0 1.83,-1.37l-0.79,0a1.43,1.43 0 0 0 -1.04,1.37z" id="svg_377"/>
  <path class="cls-8" d="m600.73,379a1.44,1.44 0 0 0 -1.38,1.05l2.75,0a1.44,1.44 0 0 0 -1.37,-1.05z" id="svg_378"/>
  <path class="cls-8" d="m593.51,379a1.44,1.44 0 0 0 -1.38,1.05l2.75,0a1.44,1.44 0 0 0 -1.37,-1.05z" id="svg_379"/>
  <path class="cls-8" d="m597.13,375.4a1.44,1.44 0 1 0 1.44,1.44a1.44,1.44 0 0 0 -1.44,-1.44z" id="svg_380"/>
  <path class="cls-8" d="m604.33,375.4a1.44,1.44 0 1 0 1.44,1.44a1.44,1.44 0 0 0 -1.44,-1.44z" id="svg_381"/>
  <path class="cls-8" d="m600.73,364.6a1.44,1.44 0 1 0 1.44,1.44a1.44,1.44 0 0 0 -1.44,-1.44z" id="svg_382"/>
  <path class="cls-8" d="m593.51,364.6a1.44,1.44 0 1 0 1.44,1.44a1.44,1.44 0 0 0 -1.44,-1.44z" id="svg_383"/>
  <path class="cls-8" d="m597.13,361a1.44,1.44 0 1 0 1.44,1.44a1.44,1.44 0 0 0 -1.44,-1.44z" id="svg_384"/>
  <path class="cls-8" d="m604.33,361a1.44,1.44 0 1 0 1.44,1.44a1.44,1.44 0 0 0 -1.44,-1.44z" id="svg_385"/>
  <path class="cls-8" d="m597.13,368.2a1.44,1.44 0 1 0 1.44,1.44a1.44,1.44 0 0 0 -1.44,-1.44z" id="svg_386"/>
  <path class="cls-8" d="m604.33,368.2a1.44,1.44 0 1 0 1.44,1.44a1.44,1.44 0 0 0 -1.44,-1.44z" id="svg_387"/>
  <path class="cls-8" d="m600.73,371.8a1.44,1.44 0 1 0 1.44,1.44a1.44,1.44 0 0 0 -1.44,-1.44z" id="svg_388"/>
  <path class="cls-8" d="m593.51,371.8a1.44,1.44 0 1 0 1.44,1.44a1.44,1.44 0 0 0 -1.44,-1.44z" id="svg_389"/>
  <path class="cls-8" d="m599.29,358.84a1.44,1.44 0 1 0 1.83,-1.37l-0.79,0a1.43,1.43 0 0 0 -1.04,1.37z" id="svg_390"/>
  <path class="cls-8" d="m592.1,358.84a1.44,1.44 0 1 0 1.83,-1.37l-0.79,0a1.43,1.43 0 0 0 -1.04,1.37z" id="svg_391"/>
  <path class="cls-8" d="m615.11,379a1.44,1.44 0 0 0 -1.38,1.05l2.75,0a1.44,1.44 0 0 0 -1.37,-1.05z" id="svg_392"/>
  <path class="cls-8" d="m607.92,379a1.44,1.44 0 0 0 -1.38,1.05l2.75,0a1.44,1.44 0 0 0 -1.37,-1.05z" id="svg_393"/>
  <path class="cls-8" d="m611.49,375.4a1.44,1.44 0 1 0 1.44,1.44a1.44,1.44 0 0 0 -1.44,-1.44z" id="svg_394"/>
  <path class="cls-8" d="m618.71,378.28a1.45,1.45 0 0 0 1.08,-0.49a14.92,14.93 0 0 1 -2.28,-1.74a1.44,1.44 0 0 0 1.2,2.23z" id="svg_395"/>
  <path class="cls-8" d="m607.92,364.6a1.44,1.44 0 1 0 1.44,1.44a1.44,1.44 0 0 0 -1.44,-1.44z" id="svg_396"/>
  <path class="cls-8" d="m611.49,361a1.44,1.44 0 1 0 1.15,2.3l0,-1.72a1.45,1.45 0 0 0 -1.15,-0.58z" id="svg_397"/>
  <path class="cls-8" d="m611.49,368.2a1.44,1.44 0 1 0 1.44,1.44a1.44,1.44 0 0 0 -1.44,-1.44z" id="svg_398"/>
  <path class="cls-8" d="m613.68,373.24a1.43,1.43 0 0 0 1.44,1.44a1.4,1.4 0 0 0 0.85,-0.28a13.76,13.77 0 0 1 -1.57,-2.4a1.43,1.43 0 0 0 -0.72,1.24z" id="svg_399"/>
  <path class="cls-8" d="m607.92,371.8a1.44,1.44 0 1 0 1.44,1.44a1.44,1.44 0 0 0 -1.44,-1.44z" id="svg_400"/>
  <path class="cls-8" d="m606.49,358.84a1.44,1.44 0 1 0 1.83,-1.37l-0.83,0a1.43,1.43 0 0 0 -1,1.37z" id="svg_401"/>
  <path class="cls-8" d="m623.28,379.39c-0.36,-0.11 -0.7,-0.24 -1,-0.38a1.42,1.42 0 0 0 -1.3,1l2.75,0a1.36,1.36 0 0 0 -0.45,-0.62z" id="svg_402"/>
  <path class="cls-5" d="m575.06,214.45l-15.06,0a14.99,15 0 0 0 -15.04,15.05l0,128" id="svg_403"/>
  <polyline class="cls-5" id="svg_404" points="642.7282605948276,244.57000732421875 642.7282605948276,237.5500030517578 642.7282605948276,237.02999877929688 "/>
  <path class="cls-5" d="m575.06,214.45l82.72,0a15.04,15.05 0 0 1 14.99,15.05l0,8.05l-30.04,0" id="svg_405"/>
  <path class="cls-5" d="m657.78,214.45a15.05,15.06 0 0 0 -15.06,15.05l0,7.5" id="svg_406"/>
  <path class="cls-5" d="m627.69,380.05a14.99,15 0 0 1 -14.99,-15.05l0,-7.53l-82.72,0a3.77,3.77 0 0 0 -3.77,3.76l0,3.77a14.99,15 0 0 0 14.99,15.05l86.48,0a14.99,15 0 0 0 14.99,-15.05l0,-120.43" id="svg_407"/>
  <path class="cls-9" d="m260.43,279.66l0,22.81a14.29,14.3 0 0 1 -22.27,11.86l-0.48,-0.1a14.34,14.35 0 0 0 -5.82,-17.86l0,-28.69a14.3,14.31 0 0 1 28.58,0l-0.01,11.98z" id="svg_409"/>
  <path class="cls-10" d="m239.85,308.44a1.44,1.44 0 0 0 -1.15,-1.41a14.38,14.39 0 0 1 0.09,1.62q0,0.6 -0.06,1.2a1.45,1.45 0 0 0 1.12,-1.41z" id="svg_410"/>
  <path class="cls-10" d="m242.02,303.4a1.44,1.44 0 1 0 1.44,1.44a1.45,1.45 0 0 0 -1.44,-1.44z" id="svg_411"/>
  <path class="cls-10" d="m242.02,310.6a1.44,1.44 0 1 0 1.44,1.44a1.45,1.45 0 0 0 -1.44,-1.44z" id="svg_412"/>
  <path class="cls-10" d="m238.42,314.2a1.45,1.45 0 0 0 -0.46,0.09l0.2,0a15.77,15.79 0 0 0 1.65,1a1.44,1.44 0 0 0 -1.39,-1.09z" id="svg_413"/>
  <path class="cls-10" d="m238.42,292.6a1.44,1.44 0 1 0 1.43,1.4a1.45,1.45 0 0 0 -1.43,-1.4z" id="svg_414"/>
  <path class="cls-10" d="m232.66,294a1.42,1.42 0 0 0 -0.82,-1.29l0,2.59a1.42,1.42 0 0 0 0.82,-1.3z" id="svg_415"/>
  <path class="cls-10" d="m234.85,289a1.44,1.44 0 1 0 1.44,1.44a1.45,1.45 0 0 0 -1.44,-1.44z" id="svg_416"/>
  <path class="cls-10" d="m242.02,289a1.44,1.44 0 1 0 1.44,1.44a1.45,1.45 0 0 0 -1.44,-1.44z" id="svg_417"/>
  <path class="cls-10" d="m236.26,297.64a1.44,1.44 0 0 0 -2.86,-0.18a13.52,13.53 0 0 1 1.7,1.6a1.45,1.45 0 0 0 1.16,-1.42z" id="svg_418"/>
  <path class="cls-10" d="m242.02,296.2a1.44,1.44 0 1 0 1.44,1.44a1.45,1.45 0 0 0 -1.44,-1.44z" id="svg_419"/>
  <path class="cls-10" d="m238.42,299.8a1.44,1.44 0 1 0 1.44,1.44a1.45,1.45 0 0 0 -1.44,-1.44z" id="svg_420"/>
  <path class="cls-10" d="m238.42,278.2a1.44,1.44 0 1 0 1.44,1.44a1.45,1.45 0 0 0 -1.44,-1.44z" id="svg_421"/>
  <path class="cls-10" d="m232.66,279.64a1.42,1.42 0 0 0 -0.82,-1.29l0,2.59a1.42,1.42 0 0 0 0.82,-1.3z" id="svg_422"/>
  <path class="cls-10" d="m234.85,274.6a1.44,1.44 0 1 0 1.44,1.44a1.45,1.45 0 0 0 -1.44,-1.44z" id="svg_423"/>
  <path class="cls-10" d="m242.02,274.6a1.44,1.44 0 1 0 1.44,1.44a1.45,1.45 0 0 0 -1.44,-1.44z" id="svg_424"/>
  <path class="cls-10" d="m234.85,281.8a1.44,1.44 0 1 0 1.44,1.44a1.45,1.45 0 0 0 -1.44,-1.44z" id="svg_425"/>
  <path class="cls-10" d="m242.02,281.8a1.44,1.44 0 1 0 1.44,1.44a1.45,1.45 0 0 0 -1.44,-1.44z" id="svg_426"/>
  <path class="cls-10" d="m238.42,285.4a1.44,1.44 0 1 0 1.44,1.44a1.45,1.45 0 0 0 -1.44,-1.44z" id="svg_427"/>
  <path class="cls-10" d="m232.66,286.84a1.42,1.42 0 0 0 -0.82,-1.29l0,2.59a1.42,1.42 0 0 0 0.82,-1.3z" id="svg_428"/>
  <path class="cls-10" d="m238.42,263.8a1.44,1.44 0 1 0 1.44,1.44a1.45,1.45 0 0 0 -1.44,-1.44z" id="svg_429"/>
  <path class="cls-10" d="m232.66,265.24a1.44,1.44 0 0 0 -0.39,-1a15.08,15.09 0 0 0 -0.37,2.25a1.45,1.45 0 0 0 0.76,-1.25z" id="svg_430"/>
  <path class="cls-10" d="m234.85,260.2a1.44,1.44 0 1 0 1.44,1.44a1.45,1.45 0 0 0 -1.44,-1.44z" id="svg_431"/>
  <path class="cls-10" d="m242.02,260.2a1.44,1.44 0 1 0 1.44,1.44a1.45,1.45 0 0 0 -1.44,-1.44z" id="svg_432"/>
  <path class="cls-10" d="m234.85,267.4a1.44,1.44 0 1 0 1.44,1.44a1.45,1.45 0 0 0 -1.44,-1.44z" id="svg_433"/>
  <path class="cls-10" d="m242.02,267.4a1.44,1.44 0 1 0 1.44,1.44a1.45,1.45 0 0 0 -1.44,-1.44z" id="svg_434"/>
  <path class="cls-10" d="m238.42,271a1.44,1.44 0 1 0 1.44,1.44a1.45,1.45 0 0 0 -1.44,-1.44z" id="svg_435"/>
  <path class="cls-10" d="m232.66,272.44a1.42,1.42 0 0 0 -0.82,-1.29l0,2.59a1.42,1.42 0 0 0 0.82,-1.3z" id="svg_436"/>
  <path class="cls-10" d="m242.02,255.88a1.43,1.43 0 0 0 1.44,-1.44a1.41,1.41 0 0 0 -0.22,-0.76a13.14,13.15 0 0 0 -2.65,0.82a1.43,1.43 0 0 0 1.43,1.38z" id="svg_437"/>
  <path class="cls-10" d="m238.42,256.6a1.44,1.44 0 1 0 1.43,1.4a1.45,1.45 0 0 0 -1.43,-1.4z" id="svg_438"/>
  <path class="cls-10" d="m252.83,307a1.44,1.44 0 1 0 1.44,1.44a1.45,1.45 0 0 0 -1.44,-1.44z" id="svg_439"/>
  <path class="cls-10" d="m245.61,307a1.44,1.44 0 1 0 1.44,1.44a1.45,1.45 0 0 0 -1.44,-1.44z" id="svg_440"/>
  <path class="cls-10" d="m249.21,303.4a1.44,1.44 0 1 0 1.44,1.44a1.45,1.45 0 0 0 -1.44,-1.44z" id="svg_441"/>
  <path class="cls-10" d="m256.4,306.28a1.44,1.44 0 1 0 -1.44,-1.44a1.43,1.43 0 0 0 1.44,1.44z" id="svg_442"/>
  <path class="cls-10" d="m249.21,310.6a1.44,1.44 0 1 0 1.44,1.44a1.45,1.45 0 0 0 -1.44,-1.44z" id="svg_443"/>
  <path class="cls-10" d="m256.4,310.6a1.45,1.45 0 0 0 -1.44,1.44a1.46,1.46 0 0 0 0.6,1.17a14.78,14.79 0 0 0 1.94,-2.09a1.43,1.43 0 0 0 -1.1,-0.52z" id="svg_444"/>
  <path class="cls-10" d="m251.37,315.64a0.51,0.51 0 0 0 0,0.13a14.67,14.68 0 0 0 2.37,-1.21a1.44,1.44 0 0 0 -2.39,1.08l0.02,0z" id="svg_445"/>
  <path class="cls-10" d="m247.05,315.64a1.44,1.44 0 1 0 -2.43,1a12.78,12.79 0 0 0 1.52,0.09l0.38,0a1.43,1.43 0 0 0 0.53,-1.09z" id="svg_446"/>
  <path class="cls-10" d="m252.83,292.6a1.44,1.44 0 1 0 1.44,1.44a1.45,1.45 0 0 0 -1.44,-1.44z" id="svg_447"/>
  <path class="cls-10" d="m245.61,292.6a1.44,1.44 0 1 0 1.44,1.44a1.45,1.45 0 0 0 -1.44,-1.44z" id="svg_448"/>
  <path class="cls-10" d="m249.21,289a1.44,1.44 0 1 0 1.44,1.44a1.45,1.45 0 0 0 -1.44,-1.44z" id="svg_449"/>
  <path class="cls-10" d="m256.4,291.88a1.44,1.44 0 1 0 -1.44,-1.44a1.43,1.43 0 0 0 1.44,1.44z" id="svg_450"/>
  <path class="cls-10" d="m249.21,296.2a1.44,1.44 0 1 0 1.44,1.44a1.45,1.45 0 0 0 -1.44,-1.44z" id="svg_451"/>
  <path class="cls-10" d="m256.4,299.08a1.44,1.44 0 1 0 -1.44,-1.44a1.43,1.43 0 0 0 1.44,1.44z" id="svg_452"/>
  <path class="cls-10" d="m252.83,299.8a1.44,1.44 0 1 0 1.44,1.44a1.45,1.45 0 0 0 -1.44,-1.44z" id="svg_453"/>
  <path class="cls-10" d="m245.61,299.8a1.44,1.44 0 1 0 1.44,1.44a1.45,1.45 0 0 0 -1.44,-1.44z" id="svg_454"/>
  <path class="cls-10" d="m252.83,278.2a1.44,1.44 0 1 0 1.44,1.44a1.45,1.45 0 0 0 -1.44,-1.44z" id="svg_455"/>
  <path class="cls-10" d="m245.61,278.2a1.44,1.44 0 1 0 1.44,1.44a1.45,1.45 0 0 0 -1.44,-1.44z" id="svg_456"/>
  <path class="cls-10" d="m249.21,274.6a1.44,1.44 0 1 0 1.44,1.44a1.45,1.45 0 0 0 -1.44,-1.44z" id="svg_457"/>
  <path class="cls-10" d="m256.4,277.48a1.44,1.44 0 1 0 -1.44,-1.44a1.43,1.43 0 0 0 1.44,1.44z" id="svg_458"/>
  <path class="cls-10" d="m249.21,281.8a1.44,1.44 0 1 0 1.44,1.44a1.45,1.45 0 0 0 -1.44,-1.44z" id="svg_459"/>
  <path class="cls-10" d="m256.4,284.68a1.44,1.44 0 1 0 -1.44,-1.44a1.43,1.43 0 0 0 1.44,1.44z" id="svg_460"/>
  <path class="cls-10" d="m252.83,285.4a1.44,1.44 0 1 0 1.44,1.44a1.45,1.45 0 0 0 -1.44,-1.44z" id="svg_461"/>
  <path class="cls-10" d="m245.61,285.4a1.44,1.44 0 1 0 1.44,1.44a1.45,1.45 0 0 0 -1.44,-1.44z" id="svg_462"/>
  <path class="cls-10" d="m252.83,263.8a1.44,1.44 0 1 0 1.44,1.44a1.45,1.45 0 0 0 -1.44,-1.44z" id="svg_463"/>
  <path class="cls-10" d="m245.61,263.8a1.44,1.44 0 1 0 1.44,1.44a1.45,1.45 0 0 0 -1.44,-1.44z" id="svg_464"/>
  <path class="cls-10" d="m249.21,260.2a1.44,1.44 0 1 0 1.44,1.44a1.45,1.45 0 0 0 -1.44,-1.44z" id="svg_465"/>
  <path class="cls-10" d="m256.4,263.08a1.44,1.44 0 1 0 -1.44,-1.44a1.43,1.43 0 0 0 1.44,1.44z" id="svg_466"/>
  <path class="cls-10" d="m249.21,267.4a1.44,1.44 0 1 0 1.44,1.44a1.45,1.45 0 0 0 -1.44,-1.44z" id="svg_467"/>
  <path class="cls-10" d="m256.4,270.28a1.44,1.44 0 1 0 -1.44,-1.44a1.43,1.43 0 0 0 1.44,1.44z" id="svg_468"/>
  <path class="cls-10" d="m252.83,271a1.44,1.44 0 1 0 1.44,1.44a1.45,1.45 0 0 0 -1.44,-1.44z" id="svg_469"/>
  <path class="cls-10" d="m245.61,271a1.44,1.44 0 1 0 1.44,1.44a1.45,1.45 0 0 0 -1.44,-1.44z" id="svg_470"/>
  <path class="cls-10" d="m249.21,255.88a1.43,1.43 0 0 0 1.44,-1.44a2.09,2.09 0 0 0 0,-0.35a14.85,14.86 0 0 0 -2.5,-0.56a1.4,1.4 0 0 0 -0.34,0.91a1.44,1.44 0 0 0 1.4,1.44z" id="svg_471"/>
  <path class="cls-10" d="m252.83,256.6a1.44,1.44 0 1 0 1.44,1.44a1.45,1.45 0 0 0 -1.44,-1.44z" id="svg_472"/>
  <path class="cls-10" d="m245.61,256.6a1.44,1.44 0 1 0 1.44,1.44a1.45,1.45 0 0 0 -1.44,-1.44z" id="svg_473"/>
  <path class="cls-10" d="m258.56,308.44a1.5,1.5 0 0 0 0.2,0.73a14.7,14.71 0 0 0 0.91,-2.12a1.44,1.44 0 0 0 -1.11,1.39z" id="svg_474"/>
  <path class="cls-10" d="m258.56,294a1.44,1.44 0 0 0 1.44,1.44a1.49,1.49 0 0 0 0.43,-0.07l0,-2.73a1.22,1.22 0 0 0 -0.43,-0.08a1.45,1.45 0 0 0 -1.44,1.44z" id="svg_475"/>
  <path class="cls-10" d="m258.56,301.24a1.44,1.44 0 0 0 1.44,1.44a1.16,1.16 0 0 0 0.42,-0.07a0.61,0.61 0 0 0 0,-0.14l0,-2.59a1.22,1.22 0 0 0 -0.43,-0.08a1.45,1.45 0 0 0 -1.43,1.44z" id="svg_476"/>
  <path class="cls-10" d="m258.56,279.64a1.44,1.44 0 0 0 1.44,1.44a1.49,1.49 0 0 0 0.43,-0.07l0,-2.73a1.22,1.22 0 0 0 -0.43,-0.08a1.45,1.45 0 0 0 -1.44,1.44z" id="svg_477"/>
  <path class="cls-10" d="m258.56,286.84a1.44,1.44 0 0 0 1.44,1.44a1.49,1.49 0 0 0 0.43,-0.07l0,-2.73a1.22,1.22 0 0 0 -0.43,-0.08a1.45,1.45 0 0 0 -1.44,1.44z" id="svg_478"/>
  <path class="cls-10" d="m258.56,265.24a1.44,1.44 0 0 0 1.44,1.44a1.58,1.58 0 0 0 0.38,-0.05a14.35,14.36 0 0 0 -0.49,-2.81a1.43,1.43 0 0 0 -1.33,1.42z" id="svg_479"/>
  <path class="cls-10" d="m258.56,272.44a1.44,1.44 0 0 0 1.44,1.44a1.49,1.49 0 0 0 0.43,-0.07l0,-2.73a1.22,1.22 0 0 0 -0.43,-0.08a1.45,1.45 0 0 0 -1.44,1.44z" id="svg_480"/>
  <path class="cls-9" d="m231.86,275l0,21.34a14.24,14.25 0 0 0 -7.33,-2l-21.24,0l0,-26.66a14.29,14.3 0 1 1 28.56,0l0.01,7.32z" id="svg_481"/>
  <path class="cls-10" d="m209.65,292.6a1.45,1.45 0 0 0 -1.44,1.44a1.55,1.55 0 0 0 0,0.31l2.81,0a1.55,1.55 0 0 0 0,-0.31a1.44,1.44 0 0 0 -1.37,-1.44z" id="svg_482"/>
  <path class="cls-10" d="m203.28,292.87l0,1.48l0.6,0a1.55,1.55 0 0 0 0,-0.31a1.43,1.43 0 0 0 -0.6,-1.17z" id="svg_483"/>
  <path class="cls-10" d="m206.05,289a1.44,1.44 0 1 0 1.44,1.44a1.45,1.45 0 0 0 -1.44,-1.44z" id="svg_484"/>
  <path class="cls-10" d="m213.24,289a1.44,1.44 0 1 0 1.44,1.44a1.45,1.45 0 0 0 -1.44,-1.44z" id="svg_485"/>
  <path class="cls-10" d="m209.65,278.2a1.44,1.44 0 1 0 1.44,1.44a1.45,1.45 0 0 0 -1.44,-1.44z" id="svg_486"/>
  <path class="cls-10" d="m203.88,279.64a1.43,1.43 0 0 0 -0.61,-1.17l0,2.35a1.44,1.44 0 0 0 0.61,-1.18z" id="svg_487"/>
  <path class="cls-10" d="m206.05,274.6a1.44,1.44 0 1 0 1.44,1.44a1.45,1.45 0 0 0 -1.44,-1.44z" id="svg_488"/>
  <path class="cls-10" d="m213.24,274.6a1.44,1.44 0 1 0 1.44,1.44a1.45,1.45 0 0 0 -1.44,-1.44z" id="svg_489"/>
  <path class="cls-10" d="m206.05,281.8a1.44,1.44 0 1 0 1.44,1.44a1.45,1.45 0 0 0 -1.44,-1.44z" id="svg_490"/>
  <path class="cls-10" d="m213.24,281.8a1.44,1.44 0 1 0 1.44,1.44a1.45,1.45 0 0 0 -1.44,-1.44z" id="svg_491"/>
  <path class="cls-10" d="m209.65,285.4a1.44,1.44 0 1 0 1.44,1.44a1.45,1.45 0 0 0 -1.44,-1.44z" id="svg_492"/>
  <path class="cls-10" d="m203.88,286.84a1.43,1.43 0 0 0 -0.61,-1.17l0,2.33a1.44,1.44 0 0 0 0.61,-1.16z" id="svg_493"/>
  <path class="cls-10" d="m209.65,263.8a1.44,1.44 0 1 0 1.44,1.44a1.45,1.45 0 0 0 -1.44,-1.44z" id="svg_494"/>
  <path class="cls-10" d="m203.88,265.24a1.43,1.43 0 0 0 -0.23,-0.79a13.48,13.49 0 0 0 -0.32,1.92a1.43,1.43 0 0 0 0.55,-1.13z" id="svg_495"/>
  <path class="cls-10" d="m206.05,263.08a1.44,1.44 0 1 0 0,-2.88a1.4,1.4 0 0 0 -0.8,0.25c-0.23,0.39 -0.44,0.8 -0.63,1.21a1.43,1.43 0 0 0 1.43,1.42z" id="svg_496"/>
  <path class="cls-10" d="m213.24,260.2a1.44,1.44 0 1 0 1.44,1.44a1.45,1.45 0 0 0 -1.44,-1.44z" id="svg_497"/>
  <path class="cls-10" d="m206.05,267.4a1.44,1.44 0 1 0 1.44,1.44a1.45,1.45 0 0 0 -1.44,-1.44z" id="svg_498"/>
  <path class="cls-10" d="m213.24,267.4a1.44,1.44 0 1 0 1.44,1.44a1.45,1.45 0 0 0 -1.44,-1.44z" id="svg_499"/>
  <path class="cls-10" d="m209.65,271a1.44,1.44 0 1 0 1.44,1.44a1.45,1.45 0 0 0 -1.44,-1.44z" id="svg_500"/>
  <path class="cls-10" d="m203.88,272.44a1.43,1.43 0 0 0 -0.61,-1.17l0,2.35a1.44,1.44 0 0 0 0.61,-1.18z" id="svg_501"/>
  <path class="cls-10" d="m213.24,255.88a1.43,1.43 0 0 0 1.44,-1.44a1.37,1.37 0 0 0 -0.2,-0.72a14.26,14.27 0 0 0 -2.66,0.87a1.43,1.43 0 0 0 1.42,1.29z" id="svg_502"/>
  <path class="cls-10" d="m209.65,256.6a1.44,1.44 0 1 0 1.44,1.44a1.45,1.45 0 0 0 -1.44,-1.44z" id="svg_503"/>
  <path class="cls-10" d="m224.03,292.6a1.45,1.45 0 0 0 -1.44,1.44a1.55,1.55 0 0 0 0,0.31l1.88,0c0.31,0 0.62,0 0.92,0a1.27,1.27 0 0 0 0,-0.34a1.44,1.44 0 0 0 -1.36,-1.41z" id="svg_504"/>
  <path class="cls-10" d="m216.87,292.6a1.45,1.45 0 0 0 -1.44,1.44a1.55,1.55 0 0 0 0,0.31l2.81,0a1.55,1.55 0 0 0 0,-0.31a1.44,1.44 0 0 0 -1.37,-1.44z" id="svg_505"/>
  <path class="cls-10" d="m220.44,289a1.44,1.44 0 1 0 1.44,1.44a1.45,1.45 0 0 0 -1.44,-1.44z" id="svg_506"/>
  <path class="cls-10" d="m227.63,289a1.44,1.44 0 1 0 1.44,1.44a1.45,1.45 0 0 0 -1.44,-1.44z" id="svg_507"/>
  <path class="cls-10" d="m224.03,278.2a1.44,1.44 0 1 0 1.44,1.44a1.45,1.45 0 0 0 -1.44,-1.44z" id="svg_508"/>
  <path class="cls-10" d="m216.87,278.2a1.44,1.44 0 1 0 1.44,1.44a1.45,1.45 0 0 0 -1.44,-1.44z" id="svg_509"/>
  <path class="cls-10" d="m220.44,274.6a1.44,1.44 0 1 0 1.43,1.4a1.45,1.45 0 0 0 -1.43,-1.4z" id="svg_510"/>
  <path class="cls-10" d="m227.63,274.6a1.44,1.44 0 1 0 1.44,1.44a1.45,1.45 0 0 0 -1.44,-1.44z" id="svg_511"/>
  <path class="cls-10" d="m220.44,281.8a1.44,1.44 0 1 0 1.44,1.44a1.45,1.45 0 0 0 -1.44,-1.44z" id="svg_512"/>
  <path class="cls-10" d="m227.63,281.8a1.44,1.44 0 1 0 1.44,1.44a1.45,1.45 0 0 0 -1.44,-1.44z" id="svg_513"/>
  <path class="cls-10" d="m224.03,285.4a1.44,1.44 0 1 0 1.44,1.44a1.45,1.45 0 0 0 -1.44,-1.44z" id="svg_514"/>
  <path class="cls-10" d="m216.87,285.4a1.44,1.44 0 1 0 1.44,1.44a1.45,1.45 0 0 0 -1.44,-1.44z" id="svg_515"/>
  <path class="cls-10" d="m224.03,263.8a1.44,1.44 0 1 0 1.44,1.44a1.45,1.45 0 0 0 -1.44,-1.44z" id="svg_516"/>
  <path class="cls-10" d="m216.87,263.8a1.44,1.44 0 1 0 1.44,1.44a1.45,1.45 0 0 0 -1.44,-1.44z" id="svg_517"/>
  <path class="cls-10" d="m220.44,260.2a1.44,1.44 0 1 0 1.44,1.44a1.45,1.45 0 0 0 -1.44,-1.44z" id="svg_518"/>
  <path class="cls-10" d="m227.63,260.2a1.44,1.44 0 1 0 1.44,1.44a1.45,1.45 0 0 0 -1.44,-1.44z" id="svg_519"/>
  <path class="cls-10" d="m220.44,267.4a1.44,1.44 0 1 0 1.44,1.44a1.45,1.45 0 0 0 -1.44,-1.44z" id="svg_520"/>
  <path class="cls-10" d="m227.63,267.4a1.44,1.44 0 1 0 1.44,1.44a1.45,1.45 0 0 0 -1.44,-1.44z" id="svg_521"/>
  <path class="cls-10" d="m224.03,271a1.44,1.44 0 1 0 1.44,1.44a1.45,1.45 0 0 0 -1.44,-1.44z" id="svg_522"/>
  <path class="cls-10" d="m216.87,271a1.44,1.44 0 1 0 1.44,1.44a1.45,1.45 0 0 0 -1.44,-1.44z" id="svg_523"/>
  <path class="cls-10" d="m220.44,255.88a1.42,1.42 0 0 0 1.37,-1.86a14.21,14.22 0 0 0 -2.45,-0.52a1.43,1.43 0 0 0 -0.36,0.94a1.44,1.44 0 0 0 1.44,1.44z" id="svg_524"/>
  <path class="cls-10" d="m224.03,256.6a1.44,1.44 0 1 0 1.44,1.44a1.45,1.45 0 0 0 -1.44,-1.44z" id="svg_525"/>
  <path class="cls-10" d="m216.87,256.6a1.44,1.44 0 1 0 1.44,1.44a1.45,1.45 0 0 0 -1.44,-1.44z" id="svg_526"/>
  <path class="cls-10" d="m229.79,294a1.44,1.44 0 0 0 1.44,1.44a1.38,1.38 0 0 0 0.62,-0.14l0,-2.59a1.38,1.38 0 0 0 -0.62,-0.15a1.45,1.45 0 0 0 -1.44,1.44z" id="svg_527"/>
  <path class="cls-10" d="m229.79,279.64a1.44,1.44 0 0 0 1.44,1.44a1.38,1.38 0 0 0 0.62,-0.14l0,-2.59a1.38,1.38 0 0 0 -0.62,-0.15a1.45,1.45 0 0 0 -1.44,1.44z" id="svg_528"/>
  <path class="cls-10" d="m229.79,286.84a1.44,1.44 0 0 0 1.44,1.44a1.38,1.38 0 0 0 0.62,-0.14l0,-2.59a1.38,1.38 0 0 0 -0.62,-0.15a1.45,1.45 0 0 0 -1.44,1.44z" id="svg_529"/>
  <path class="cls-10" d="m229.79,265.24a1.44,1.44 0 0 0 1.44,1.44a1.56,1.56 0 0 0 0.57,-0.11a13.99,14 0 0 0 -0.49,-2.76l-0.08,0a1.45,1.45 0 0 0 -1.44,1.43z" id="svg_530"/>
  <path class="cls-10" d="m229.79,272.44a1.44,1.44 0 0 0 1.44,1.44a1.38,1.38 0 0 0 0.62,-0.14l0,-2.59a1.38,1.38 0 0 0 -0.62,-0.15a1.45,1.45 0 0 0 -1.44,1.44z" id="svg_531"/>
  <path class="cls-3" d="m231.86,296.37a14.34,14.35 0 0 1 5.83,17.86l0.48,0.1a14.29,14.3 0 0 0 22.27,-11.86l0,-77.32a14.3,14.31 0 0 1 28.58,0l0,111.34a47.11,47.16 0 0 1 -47.11,47.16l-20.04,0a47.11,47.16 0 0 1 -47.11,-47.16l0,-25.34a16.77,16.79 0 0 1 16.78,-16.8l33.03,0a14.24,14.25 0 0 1 7.29,2.02z" id="svg_532"/>
  <path class="cls-3" d="m203.28,279.66l0,14.69l-11.8,0a16.77,16.79 0 0 0 -16.78,16.8l0,-86a14.3,14.31 0 0 1 28.58,0l0,54.51z" id="svg_533"/>
  <path class="cls-5" d="m289.01,279.66l0,56.83a47.11,47.16 0 0 1 -47.11,47.16l-20.03,0a47.11,47.16 0 0 1 -47.11,-47.16l0,-56.83" id="svg_534"/>
  <path class="cls-5" d="m174.7,279.66l0,-54.51a14.3,14.31 0 0 1 28.58,0l0,42.53" id="svg_535"/>
  <path class="cls-5" d="m260.43,267.68l0,-42.53a14.3,14.31 0 0 1 28.58,0l0,54.51" id="svg_536"/>
  <path class="cls-5" d="m203.28,294.35l0,-26.67a14.29,14.3 0 1 1 28.56,0" id="svg_537" transform="matrix(1 0 0 1 0 0)"/>
  <path class="cls-5" d="m231.86,296.39l0,-28.71a14.3,14.31 0 0 1 28.58,0l0,34.79a14.29,14.3 0 0 1 -22.27,11.86" id="svg_538"/>
  <path class="cls-5" d="m174.7,311.15a16.77,16.79 0 0 1 16.78,-16.8l33.03,0a14.29,14.3 0 1 1 0,28.6l-22.24,0" id="svg_539"/>
  <path class="cls-5" d="m218.72,323a15.46,15.47 0 0 1 15.46,15.47l0,10.05" id="svg_540"/>
  <g id="Text">
   <path d="m880,519l0,-0.25a1.6,1.6 0 0 1 1.7,-1.75l1.7,0a1.6,1.6 0 0 1 1.75,1.75l0,0.65c0,2.5 1.1,3.4 2.85,3.4s2.85,-0.9 2.85,-3.5c0,-2.9 -1.1,-4.75 -4.7,-7.9c-4.6,-4.05 -6.1,-6.9 -6.1,-10.9c0,-5.5 2.85,-8.7 8.2,-8.7s8,3.3 8,8.5a1.56,1.56 0 0 1 -1.75,1.7l-1.7,0a1.56,1.56 0 0 1 -1.75,-1.75l0,-0.05c0,-2.5 -1,-3.45 -2.75,-3.45s-2.75,0.95 -2.75,3.35s1.15,4.4 4.75,7.55c4.6,4.05 6.05,6.85 6.05,11.2c0,5.7 -2.9,8.9 -8.3,8.9s-8.05,-3.2 -8.05,-8.75z" id="svg_541"/>
   <path d="m904.15,519.15l0,-18.8c0,-5.4 2.8,-8.6 8.1,-8.6s8.1,3.2 8.1,8.6l0,1.95a1.6,1.6 0 0 1 -1.75,1.75l-1.7,0a1.6,1.6 0 0 1 -1.75,-1.75l0,-2.3c0,-2.3 -1.1,-3.25 -2.75,-3.25s-2.75,0.95 -2.75,3.25l0,19.55c0,2.3 1.1,3.2 2.75,3.2s2.75,-0.9 2.75,-3.2l0,-3.55a1.6,1.6 0 0 1 1.75,-1.75l1.7,0a1.6,1.6 0 0 1 1.75,1.75l0,3.2c0,5.4 -2.8,8.6 -8.1,8.6s-8.1,-3.25 -8.1,-8.65z" id="svg_542"/>
   <path d="m928.65,525.5l0,-31.5a1.6,1.6 0 0 1 1.75,-1.75l2,0a1.6,1.6 0 0 1 1.75,1.75l0,31.5a1.6,1.6 0 0 1 -1.75,1.75l-2,0a1.6,1.6 0 0 1 -1.75,-1.75z" id="svg_543"/>
   <path d="m942.3,519l0,-0.25a1.6,1.6 0 0 1 1.75,-1.75l1.7,0a1.6,1.6 0 0 1 1.75,1.75l0,0.65c0,2.5 1.1,3.4 2.85,3.4s2.85,-0.9 2.85,-3.5c0,-2.9 -1.1,-4.75 -4.7,-7.9c-4.6,-4.05 -6.1,-6.9 -6.1,-10.9c0,-5.5 2.85,-8.7 8.2,-8.7s8,3.3 8,8.5a1.56,1.56 0 0 1 -1.75,1.75l-1.7,0a1.56,1.56 0 0 1 -1.75,-1.75l0,-0.05c0,-2.5 -1,-3.45 -2.75,-3.45s-2.75,0.95 -2.75,3.35s1.15,4.4 4.75,7.55c4.6,4.05 6.05,6.85 6.05,11.2c0,5.7 -2.9,8.9 -8.3,8.9s-8.1,-3.25 -8.1,-8.8z" id="svg_544"/>
   <path d="m965.9,519l0,-0.25a1.6,1.6 0 0 1 1.75,-1.75l1.7,0a1.6,1.6 0 0 1 1.75,1.75l0,0.65c0,2.5 1.1,3.4 2.85,3.4s2.85,-0.9 2.85,-3.5c0,-2.9 -1.1,-4.75 -4.7,-7.9c-4.6,-4.05 -6.1,-6.9 -6.1,-10.9c0,-5.5 2.85,-8.7 8.2,-8.7s8,3.3 8,8.5a1.56,1.56 0 0 1 -1.75,1.75l-1.7,0a1.56,1.56 0 0 1 -1.75,-1.75l0,-0.05c0,-2.5 -1,-3.45 -2.75,-3.45s-2.75,0.95 -2.75,3.35s1.15,4.4 4.75,7.55c4.6,4.05 6,6.85 6,11.2c0,5.7 -2.9,8.9 -8.3,8.9s-8.05,-3.25 -8.05,-8.8z" id="svg_545"/>
   <path d="m990.05,519l0,-18.4c0,-5.6 3,-8.8 8.35,-8.8s8.35,3.2 8.35,8.8l0,18.4c0,5.6 -3,8.8 -8.35,8.8s-8.35,-3.25 -8.35,-8.8zm11.2,0.35l0,-19.15c0,-2.5 -1.1,-3.45 -2.85,-3.45s-2.85,0.95 -2.85,3.45l0,19.1c0,2.5 1.1,3.45 2.85,3.45s2.85,-0.95 2.85,-3.45l0,0.05z" id="svg_546"/>
   <path d="m1015.45,525.5l0,-31.5a1.6,1.6 0 0 1 1.75,-1.75l6.4,0c5.7,0 8.15,2.65 8.15,8.05l0,2.15c0,3.6 -1.15,5.9 -3.6,6.9l0,0.1c2.75,0.85 3.65,3.45 3.65,7.4l0,6.15a11.37,11.37 0 0 0 0.15,2.35a3.44,3.44 0 0 1 0.1,0.65c0,0.8 -0.55,1.25 -1.5,1.25l-2.2,0a1.67,1.67 0 0 1 -1.9,-1.5a17.57,17.57 0 0 1 -0.15,-2.8l0,-6.4c0,-3.25 -1,-4.3 -3.45,-4.3l-1.85,0l0,13.25a1.6,1.6 0 0 1 -1.75,1.75l-2,0a1.6,1.6 0 0 1 -1.8,-1.75zm7.5,-18.25c2,0 3.3,-0.9 3.3,-3.7l0,-2.7c0,-2.5 -0.85,-3.6 -2.8,-3.6l-2.45,0l0,10l1.95,0z" id="svg_547"/>
   <path d="m1039.65,519l0,-0.25a1.6,1.6 0 0 1 1.75,-1.75l1.7,0a1.6,1.6 0 0 1 1.75,1.75l0,0.65c0,2.5 1.1,3.4 2.85,3.4s2.85,-0.9 2.85,-3.5c0,-2.9 -1.1,-4.75 -4.7,-7.9c-4.6,-4.05 -6.1,-6.9 -6.1,-10.9c0,-5.5 2.85,-8.7 8.2,-8.7s8,3.3 8,8.5a1.56,1.56 0 0 1 -1.75,1.75l-1.7,0a1.56,1.56 0 0 1 -1.75,-1.75l0,-0.05c0,-2.5 -1,-3.45 -2.75,-3.45s-2.75,0.95 -2.75,3.35s1.15,4.4 4.75,7.55c4.6,4.05 6,6.85 6,11.2c0,5.7 -2.9,8.9 -8.3,8.9s-8.05,-3.25 -8.05,-8.8z" id="svg_548"/>
   <path d="m544.18,525.5l0,-31.5a1.6,1.6 0 0 1 1.75,-1.75l6.35,0c5.5,0 8.2,3.05 8.2,8.65l0,3.45c0,5.6 -2.7,8.65 -8.2,8.65l-2.6,0l0,12.5a1.6,1.6 0 0 1 -1.75,1.75l-2,0a1.6,1.6 0 0 1 -1.75,-1.75zm8.1,-17.5c1.75,0 2.7,-0.8 2.7,-3.3l0,-4.15c0,-2.5 -1,-3.3 -2.7,-3.3l-2.6,0l0,10.75l2.6,0z" id="svg_549"/>
   <path d="m565.43,525.75a2.2,2.2 0 0 1 0.05,-0.45l5.25,-31.45a1.7,1.7 0 0 1 1.85,-1.6l4.25,0a1.7,1.7 0 0 1 1.85,1.6l5.25,31.45a2.2,2.2 0 0 1 0.05,0.45c0,1 -0.6,1.5 -1.65,1.5l-2,0a1.71,1.71 0 0 1 -1.9,-1.6l-0.75,-5.35l0,0.1l-6.45,0l-0.75,5.25a1.71,1.71 0 0 1 -1.9,1.6l-1.55,0c-1.03,0 -1.6,-0.55 -1.6,-1.5zm11.65,-10.1l-2.55,-17.3l-0.1,0l-2.5,17.3l5.15,0z" id="svg_550"/>
   <path d="m591.77,525.5l0,-31.5a1.6,1.6 0 0 1 1.75,-1.75l6.36,0c5.5,0 8.2,3.05 8.2,8.65l0,3.45c0,5.6 -2.7,8.65 -8.2,8.65l-2.61,0l0,12.5a1.6,1.6 0 0 1 -1.75,1.75l-2,0a1.6,1.6 0 0 1 -1.75,-1.75zm8.11,-17.5c1.75,0 2.7,-0.8 2.7,-3.3l0,-4.15c0,-2.5 -1,-3.3 -2.7,-3.3l-2.61,0l0,10.75l2.61,0z" id="svg_551"/>
   <path d="m616.07,525.5l0,-31.5a1.6,1.6 0 0 1 1.75,-1.75l11.5,0a1.61,1.61 0 0 1 1.76,1.75l0,1.5a1.61,1.61 0 0 1 -1.76,1.75l-7.75,0l0,9.25l5.8,0a1.6,1.6 0 0 1 1.75,1.75l0,1.5a1.6,1.6 0 0 1 -1.75,1.75l-5.8,0l0,10.75l7.75,0a1.61,1.61 0 0 1 1.76,1.75l0,1.5a1.61,1.61 0 0 1 -1.76,1.75l-11.5,0a1.6,1.6 0 0 1 -1.75,-1.75z" id="svg_552"/>
   <path d="m639.22,525.5l0,-31.5a1.6,1.6 0 0 1 1.75,-1.75l6.4,0c5.7,0 8.15,2.65 8.15,8.05l0,2.15c0,3.6 -1.15,5.9 -3.6,6.9l0,0.1c2.75,0.85 3.65,3.45 3.65,7.4l0,6.15a11.37,11.37 0 0 0 0.15,2.35a3.44,3.44 0 0 1 0.1,0.65c0,0.8 -0.55,1.25 -1.5,1.25l-2.2,0a1.67,1.67 0 0 1 -1.9,-1.5a17.57,17.57 0 0 1 -0.15,-2.8l0,-6.4c0,-3.25 -1,-4.3 -3.45,-4.3l-1.9,0l0,13.25a1.6,1.6 0 0 1 -1.75,1.75l-2,0a1.6,1.6 0 0 1 -1.75,-1.75zm7.5,-18.25c2,0 3.3,-0.9 3.3,-3.7l0,-2.7c0,-2.5 -0.85,-3.6 -2.8,-3.6l-2.5,0l0,10l2,0z" id="svg_553"/>
   <path d="m186,525.5l0,-31.5a1.6,1.6 0 0 1 1.75,-1.75l6.41,0c5.7,0 8.15,2.65 8.15,8.05l0,2.15c0,3.6 -1.15,5.9 -3.6,6.9l0,0.1c2.75,0.85 3.65,3.45 3.65,7.4l0,6.15a11.37,11.37 0 0 0 0.15,2.35a3.44,3.44 0 0 1 0.1,0.65c0,0.8 -0.55,1.25 -1.5,1.25l-2.2,0a1.67,1.67 0 0 1 -1.9,-1.5a17.57,17.57 0 0 1 -0.15,-2.8l0,-6.4c0,-3.25 -1,-4.3 -3.45,-4.3l-1.91,0l0,13.25a1.6,1.6 0 0 1 -1.75,1.75l-2,0a1.6,1.6 0 0 1 -1.75,-1.75zm7.51,-18.25c2.05,0 3.3,-0.9 3.3,-3.7l0,-2.7c0,-2.5 -0.85,-3.6 -2.8,-3.6l-2.51,0l0,10l2.01,0z" id="svg_554"/>
   <path d="m210.72,519l0,-18.4c0,-5.6 2.95,-8.8 8.35,-8.8s8.36,3.2 8.36,8.8l0,18.4c0,5.6 -3,8.8 -8.36,8.8s-8.35,-3.25 -8.35,-8.8zm11.21,0.35l0,-19.15c0,-2.5 -1.11,-3.45 -2.86,-3.45s-2.85,0.95 -2.85,3.45l0,19.1c0,2.5 1.1,3.45 2.85,3.45s2.86,-0.95 2.86,-3.45l0,0.05z" id="svg_555"/>
   <path d="m235.77,519.15l0,-18.8c0,-5.4 2.8,-8.6 8.11,-8.6s8.1,3.2 8.1,8.6l0,1.95a1.6,1.6 0 0 1 -1.75,1.75l-1.7,0a1.6,1.6 0 0 1 -1.75,-1.75l0,-2.3c0,-2.3 -1.1,-3.25 -2.75,-3.25s-2.75,0.95 -2.75,3.25l0,19.55c0,2.3 1.09,3.2 2.75,3.2s2.75,-0.9 2.75,-3.2l0,-3.55a1.6,1.6 0 0 1 1.75,-1.75l1.7,0a1.6,1.6 0 0 1 1.77,1.75l0,3.2c0,5.4 -2.8,8.6 -8.1,8.6s-8.13,-3.25 -8.13,-8.65z" id="svg_556"/>
   <path d="m260.27,525.5l0,-31.5a1.6,1.6 0 0 1 1.75,-1.75l2,0a1.6,1.6 0 0 1 1.75,1.75l0,13l6.55,-13.45a2.1,2.1 0 0 1 2.05,-1.3l1.7,0c1,0 1.56,0.45 1.56,1.15a2,2 0 0 1 -0.25,0.9l-5.66,10.8l6.16,20a3.11,3.11 0 0 1 0.15,0.85c0,0.85 -0.56,1.3 -1.56,1.3l-2.15,0a2,2 0 0 1 -2,-1.45l-4.32,-14.15l-2.2,4.45l0,9.4a1.6,1.6 0 0 1 -1.75,1.75l-2,0a1.6,1.6 0 0 1 -1.78,-1.75z" id="svg_557"/>
  </g>
 </g>
</svg>